<svg xmlns="http://www.w3.org/2000/svg" xmlns:xlink="http://www.w3.org/1999/xlink" width="26.341" height="30.922" viewBox="0 0 26.341 30.922">
  <defs>
    <clipPath id="clip-path">
      <rect id="사각형_1" data-name="사각형 1" width="25.592" height="10.558" fill="none"/>
    </clipPath>
    <clipPath id="clip-path-2">
      <rect id="사각형_2" data-name="사각형 2" width="17.719" height="17.719" fill="none"/>
    </clipPath>
  </defs>
  <g id="그룹_24" data-name="그룹 24" transform="translate(-168.571 -446.473)">
    <g id="그룹_23" data-name="그룹 23">
      <path id="패스_833" data-name="패스 833" d="M175.838,462.949v10.122h25.879V462.949h-1.79l-3.656.655a35.108,35.108,0,0,0-7.744-1.057,31.807,31.807,0,0,0-7.51,1.057,32.362,32.362,0,0,0-4.039-.77C175.664,462.752,175.838,462.949,175.838,462.949Z" transform="translate(-6.992 4.324)" fill="#d4b291" opacity="0.3"/>
      <path id="패스_824" data-name="패스 824" d="M46.58,10.138c1.594-.769,3.806.705,6.565.123a29.591,29.591,0,0,1,6.565-.637,29.282,29.282,0,0,1,6.254.66c2.693.582,4.858-.908,6.423-.146" transform="translate(122.258 457.25)" fill="none" stroke="#6f6f6e" stroke-linecap="round" stroke-linejoin="round" stroke-width="0.4"/>
      <g id="그룹_20" data-name="그룹 20" transform="translate(168.838 466.821)">
        <g id="그룹_19" data-name="그룹 19" transform="translate(0 0)" clip-path="url(#clip-path)">
          <path id="패스_834" data-name="패스 834" d="M23.582,10.536a.284.284,0,0,1-.048,0c-.086-.016-.092-.025-.26-.228q-.132-.16-.389-.48c-.342-.422-.857-1.065-1.532-1.908C20,6.221,17.953,3.657,15.27.295a.125.125,0,0,1,.044-.207.25.25,0,0,1,.28.033.149.149,0,0,1,.02.026L18.208,3.4c.751-.011,1.4-.005,2.036,0s1.258.011,1.988,0c.66-1,2.057-3.121,2.072-3.143a.238.238,0,0,1,.27-.062c.094.037.133.121.089.192-.015.023-1.491,2.257-2.125,3.224a.212.212,0,0,1-.176.082c-.789.012-1.467.007-2.124,0-.556,0-1.129-.01-1.769,0,2.269,2.874,3.807,4.779,4.643,5.817q.321.4.482.6c.2.255.2.255.181.319a.167.167,0,0,1-.088.088.242.242,0,0,1-.1.026" transform="translate(0 0.022)" fill="#6f6f6e"/>
          <path id="패스_835" data-name="패스 835" d="M10.061,4.431a.243.243,0,0,1-.1-.021C8.49,3.77,7,3.085,5.561,2.423s-2.95-1.351-4.424-2A.126.126,0,0,1,1.086.222.244.244,0,0,1,1.337.171c1.483.647,2.984,1.335,4.435,2,1.414.65,2.876,1.321,4.319,1.952l4.332-.906L17.369,2.6a.216.216,0,0,1,.247.1c.03.078-.032.16-.138.182L14.532,3.5l-4.416.927a.368.368,0,0,1-.055,0" transform="translate(0 0.058)" fill="#6f6f6e"/>
          <path id="패스_836" data-name="패스 836" d="M7.964,6.58c-.11,0-.2-.067-.2-.148a.13.13,0,0,1,.05-.1c.311-.262.685-.651,1.046-1.027s.733-.762,1.056-1.038L11.683.1a.22.22,0,0,1,.251-.1c.1.025.164.108.131.186l-1.78,4.194a.137.137,0,0,1-.041.053c-.315.265-.693.658-1.058,1.038A14.629,14.629,0,0,1,8.111,6.531a.238.238,0,0,1-.147.049" transform="translate(0 0)" fill="#6f6f6e"/>
          <path id="패스_837" data-name="패스 837" d="M12.05,8.852a.232.232,0,0,1-.157-.056L7.7,4.842a.125.125,0,0,1,.033-.208.25.25,0,0,1,.281.025l4.191,3.954a.125.125,0,0,1-.033.208.248.248,0,0,1-.124.032Z" transform="translate(0 1.706)" fill="#6f6f6e"/>
          <path id="패스_838" data-name="패스 838" d="M12.051,9.681c-.11,0-.2-.067-.2-.148a.12.12,0,0,1,.008-.041L13.465,5.3l1.023-2.808a.2.2,0,0,1,.232-.121c.108.014.181.09.162.171l-.008.023L13.855,5.377l-1.611,4.2a.2.2,0,0,1-.193.107" transform="translate(0 0.877)" fill="#6f6f6e"/>
          <path id="패스_839" data-name="패스 839" d="M17.87,8.632a.24.24,0,0,1-.137-.04L15.478,7.023l-2.26-1.569a.123.123,0,0,1-.009-.21.251.251,0,0,1,.283-.007l2.256,1.569,2.259,1.569a.123.123,0,0,1,.009.21.237.237,0,0,1-.146.047" transform="translate(0 1.926)" fill="#6f6f6e"/>
          <path id="패스_840" data-name="패스 840" d="M15.975,7.86c-.11,0-.2-.069-.2-.151a.148.148,0,0,1,.1-.125l4.406-1.968L14.115,3.854c-.1-.032-.15-.118-.107-.193a.228.228,0,0,1,.251-.082l6.547,1.869c.1.03.154.116.115.192a.166.166,0,0,1-.084.074L16.081,7.839a.25.25,0,0,1-.106.021" transform="translate(0 1.323)" fill="#6f6f6e"/>
          <path id="패스_841" data-name="패스 841" d="M3.071,6.784c-.11,0-.2-.067-.2-.149a.115.115,0,0,1,.019-.063c.962-1.428,3.064-4.646,3.085-4.678a.238.238,0,0,1,.27-.064c.094.037.134.121.09.193-.02.03-1.868,2.86-2.893,4.393,1.476-.278,2.99-.563,4.483-.843a.214.214,0,0,1,.244.107c.028.079-.037.16-.144.181-1.635.306-3.3.618-4.9.921a.253.253,0,0,1-.056,0" transform="translate(0 0.672)" fill="#6f6f6e"/>
          <path id="패스_842" data-name="패스 842" d="M.2,8.613a.258.258,0,0,1-.113-.026.126.126,0,0,1-.053-.206l2.826-3.07a.244.244,0,0,1,.278-.038.126.126,0,0,1,.052.206L.366,8.547A.224.224,0,0,1,.2,8.613" transform="translate(0 1.945)" fill="#6f6f6e"/>
          <path id="패스_843" data-name="패스 843" d="M21.859,7.419c-.11,0-.2-.066-.2-.147a.145.145,0,0,1,.1-.13c.568-.238,1.175-.5,1.763-.761.521-.228,1.059-.462,1.571-.678l-3-2.988a.126.126,0,0,1,.041-.208.25.25,0,0,1,.28.032q1.571,1.556,3.139,3.122a.125.125,0,0,1-.04.207l-.022.011c-.568.238-1.175.5-1.762.759s-1.2.524-1.769.763a.25.25,0,0,1-.1.018" transform="translate(0 0.919)" fill="#6f6f6e"/>
        </g>
      </g>
      <g id="그룹_22" data-name="그룹 22" transform="translate(173.179 446.473)">
        <g id="그룹_21" data-name="그룹 21" transform="translate(0 0)" clip-path="url(#clip-path-2)">
          <path id="패스_844" data-name="패스 844" d="M11.7,7.675a4.02,4.02,0,1,1-4.021-4.02h0a4.021,4.021,0,0,1,4.02,4.02" transform="translate(1.186 1.185)" fill="#f27100"/>
          <path id="패스_845" data-name="패스 845" d="M11.7,7.675a4.02,4.02,0,1,1-4.021-4.02h0a4.021,4.021,0,0,1,4.02,4.02" transform="translate(1.186 1.185)" fill="none" stroke="#707070" stroke-width="0.4"/>
          <path id="패스_846" data-name="패스 846" d="M11.7,7.675a4.02,4.02,0,1,1-4.021-4.02h0A4.021,4.021,0,0,1,11.7,7.675Z" transform="translate(1.186 1.185)" fill="none" stroke="#6f6f6e" stroke-linecap="round" stroke-linejoin="round" stroke-width="0.4"/>
          <path id="패스_847" data-name="패스 847" d="M6.98,1.676c0,.814-.1,1.476-.233,1.476s-.232-.662-.232-1.476S6.622.2,6.751.2s.229.662.229,1.476" transform="translate(2.111 0.065)" fill="#f7cc15"/>
          <path id="패스_848" data-name="패스 848" d="M6.98,1.676c0,.814-.1,1.476-.233,1.476s-.232-.662-.232-1.476S6.622.2,6.751.2s.229.662.229,1.476" transform="translate(2.111 0.065)" fill="none" stroke="#707070" stroke-width="0.4"/>
          <path id="패스_849" data-name="패스 849" d="M6.98,12.427c0,.814-.1,1.476-.233,1.476s-.232-.662-.232-1.476.107-1.476.236-1.476.229.662.229,1.476" transform="translate(2.111 3.549)" fill="#f7cc15"/>
          <path id="패스_850" data-name="패스 850" d="M6.98,12.427c0,.814-.1,1.476-.233,1.476s-.232-.662-.232-1.476.107-1.476.236-1.476.229.662.229,1.476" transform="translate(2.111 3.549)" fill="none" stroke="#707070" stroke-width="0.4"/>
          <path id="패스_851" data-name="패스 851" d="M6.98,1.965c0,.5-.1.912-.233.912s-.232-.409-.232-.912.107-.912.236-.912S6.98,1.462,6.98,1.965Z" transform="translate(2.111 0.341)" fill="none" stroke="#6f6f6e" stroke-linecap="round" stroke-linejoin="round" stroke-width="0.4"/>
          <path id="패스_852" data-name="패스 852" d="M3.312,2.985c.576.576.972,1.118.879,1.209s-.632-.3-1.208-.88-.969-1.12-.878-1.21.63.306,1.206.882" transform="translate(0.678 0.677)" fill="#f7cc15"/>
          <path id="패스_853" data-name="패스 853" d="M3.312,2.985c.576.576.972,1.118.879,1.209s-.632-.3-1.208-.88-.969-1.12-.878-1.21.63.306,1.206.882" transform="translate(0.678 0.677)" fill="none" stroke="#707070" stroke-width="0.4"/>
          <path id="패스_854" data-name="패스 854" d="M10.914,10.587c.576.576.972,1.118.879,1.209s-.632-.3-1.208-.88-.969-1.12-.878-1.21.63.306,1.206.882" transform="translate(3.142 3.141)" fill="#f7cc15"/>
          <path id="패스_855" data-name="패스 855" d="M10.914,10.587c.576.576.972,1.118.879,1.209s-.632-.3-1.208-.88-.969-1.12-.878-1.21.63.306,1.206.882" transform="translate(3.142 3.141)" fill="none" stroke="#707070" stroke-width="0.4"/>
          <path id="패스_856" data-name="패스 856" d="M3.519,3.19c.356.356.572.718.481.81s-.453-.126-.809-.482-.569-.72-.479-.812S3.163,2.834,3.519,3.19Z" transform="translate(0.872 0.871)" fill="none" stroke="#6f6f6e" stroke-linecap="round" stroke-linejoin="round" stroke-width="0.4"/>
          <path id="패스_857" data-name="패스 857" d="M1.677,6.515c.814,0,1.476.1,1.476.233s-.662.232-1.476.232S.2,6.872.2,6.744s.662-.229,1.476-.229" transform="translate(0.065 2.111)" fill="#f7cc15"/>
          <path id="패스_858" data-name="패스 858" d="M1.677,6.515c.814,0,1.476.1,1.476.233s-.662.232-1.476.232S.2,6.872.2,6.744s.662-.229,1.476-.229" transform="translate(0.065 2.111)" fill="none" stroke="#707070" stroke-width="0.4"/>
          <path id="패스_859" data-name="패스 859" d="M12.427,6.515c.814,0,1.476.1,1.476.233s-.662.232-1.476.232-1.476-.107-1.476-.236.662-.229,1.476-.229" transform="translate(3.549 2.111)" fill="#f7cc15"/>
          <path id="패스_860" data-name="패스 860" d="M12.427,6.515c.814,0,1.476.1,1.476.233s-.662.232-1.476.232-1.476-.107-1.476-.236.662-.229,1.476-.229" transform="translate(3.549 2.111)" fill="none" stroke="#707070" stroke-width="0.4"/>
          <path id="패스_861" data-name="패스 861" d="M1.965,6.515c.5,0,.912.1.912.233s-.409.232-.912.232-.912-.107-.912-.236S1.462,6.515,1.965,6.515Z" transform="translate(0.341 2.111)" fill="none" stroke="#6f6f6e" stroke-linecap="round" stroke-linejoin="round" stroke-width="0.4"/>
          <path id="패스_862" data-name="패스 862" d="M2.985,10.586c.576-.576,1.118-.972,1.209-.879s-.3.632-.88,1.208-1.12.969-1.21.878.306-.63.882-1.206" transform="translate(0.677 3.141)" fill="#f7cc15"/>
          <path id="패스_863" data-name="패스 863" d="M2.985,10.586c.576-.576,1.118-.972,1.209-.879s-.3.632-.88,1.208-1.12.969-1.21.878.306-.63.882-1.206" transform="translate(0.677 3.141)" fill="none" stroke="#707070" stroke-width="0.4"/>
          <path id="패스_864" data-name="패스 864" d="M10.587,2.984c.576-.576,1.118-.972,1.209-.879s-.3.632-.88,1.208-1.12.969-1.21.878.306-.63.882-1.206" transform="translate(3.141 0.678)" fill="#f7cc15"/>
          <path id="패스_865" data-name="패스 865" d="M10.587,2.984c.576-.576,1.118-.972,1.209-.879s-.3.632-.88,1.208-1.12.969-1.21.878.306-.63.882-1.206" transform="translate(3.141 0.678)" fill="none" stroke="#707070" stroke-width="0.4"/>
          <path id="패스_866" data-name="패스 866" d="M3.19,10.189c.356-.356.718-.572.81-.481s-.126.453-.482.809-.72.569-.812.479S2.834,10.545,3.19,10.189Z" transform="translate(0.871 3.139)" fill="none" stroke="#6f6f6e" stroke-linecap="round" stroke-linejoin="round" stroke-width="0.4"/>
        </g>
      </g>
    </g>
  </g>
</svg>
