<svg xmlns="http://www.w3.org/2000/svg" xmlns:xlink="http://www.w3.org/1999/xlink" width="105" height="116" viewBox="0 0 105 116">
  <defs>
    <filter id="사각형_8758" x="0" y="0" width="105" height="116" filterUnits="userSpaceOnUse">
      <feOffset dx="3" dy="3" input="SourceAlpha"/>
      <feGaussianBlur stdDeviation="7.5" result="blur"/>
      <feFlood flood-opacity="0.102"/>
      <feComposite operator="in" in2="blur"/>
      <feComposite in="SourceGraphic"/>
    </filter>
  </defs>
  <g id="그룹_258" data-name="그룹 258" transform="translate(-4695.5 -1423.5)">
    <g id="그룹_197" data-name="그룹 197" transform="translate(3722 35)" opacity="0.85">
      <g transform="matrix(1, 0, 0, 1, 973.5, 1388.5)" filter="url(#사각형_8758)">
        <rect id="사각형_8758-2" data-name="사각형 8758" width="60" height="71" rx="8" transform="translate(19.5 19.5)" fill="#fff"/>
      </g>
      <path id="다각형_3" data-name="다각형 3" d="M5,0l5,9H0Z" transform="translate(1027 1488) rotate(180)" fill="#fff"/>
    </g>
    <g id="그룹_15" data-name="그룹 15" transform="translate(4560.166 1016.941)">
      <path id="패스_822" data-name="패스 822" d="M61.23,27.385V13.743l-7.119.375a99.368,99.368,0,0,1-7.531,7.345q-.195-.181,11.412-12.823,2.575,1.249,5.155,2.507,1.727-4.409,3.461-8.815L71.4.487,66.982,9.175q4.559,2.248,9.118,4.509c.209.943.415,1.888.624,2.83q-.689-1.14-1.381-2.279L70.68,13.3l-4.67-.935q.017,2.319.032,4.641l5.346,4.576L67.38,20.337c-2.65-.032.091-.062-2.559-.094l-.182,7.137Z" transform="translate(122.258 439.572)" fill="#884b32" stroke="#707070" stroke-width="0.4"/>
      <path id="패스_823" data-name="패스 823" d="M61.23,27.385V13.743l-7.119.375a99.368,99.368,0,0,1-7.531,7.345q-.195-.181,11.412-12.823,2.575,1.249,5.155,2.507,1.727-4.409,3.461-8.815L71.4.487,66.982,9.175q4.559,2.248,9.118,4.509c.209.943.415,1.888.624,2.83q-.689-1.14-1.381-2.279L70.68,13.3l-4.67-.935q.017,2.319.032,4.641l5.346,4.576L67.38,20.337c-2.65-.032.091-.062-2.559-.094l-.182,7.137Z" transform="translate(122.258 439.572)" fill="none" stroke="#6f6f6e" stroke-linecap="round" stroke-linejoin="round" stroke-width="0.4"/>
      <path id="패스_824" data-name="패스 824" d="M46.58,10.267c1.991-.96,4.754.881,8.2.154a36.959,36.959,0,0,1,8.2-.8,36.573,36.573,0,0,1,7.811.824c3.364.727,6.068-1.134,8.022-.182" transform="translate(122.259 457.339)" fill="none" stroke="#6f6f6e" stroke-linecap="round" stroke-linejoin="round" stroke-width="0.4"/>
      <path id="패스_825" data-name="패스 825" d="M53.224,9.663Q63.358,26.819,63.391,26.792c.021-.011-2.331-3.853-6.817-11.523,1.961-.041,3.327.041,5.288,0,.8-1.647,2.654-5.431,2.654-5.431" transform="translate(135.183 457.508)" fill="none" stroke="#6f6f6e" stroke-linecap="round" stroke-linejoin="round" stroke-width="0.4"/>
      <path id="패스_826" data-name="패스 826" d="M67.214,13.748l-9.193,2.589c-3.682-2.161-7.34-4.545-11.021-6.71" transform="translate(123.665 457.738)" fill="none" stroke="#6f6f6e" stroke-linecap="round" stroke-linejoin="round" stroke-width="0.4"/>
      <path id="패스_827" data-name="패스 827" d="M50.053,20.045c.8-.907,1.858-2.613,2.659-3.52L54.935,9.46" transform="translate(129.015 457.553)" fill="none" stroke="#6f6f6e" stroke-linecap="round" stroke-linejoin="round" stroke-width="0.4"/>
      <line id="선_757" data-name="선 757" x1="5.233" y1="6.662" transform="translate(178.938 477.637)" fill="none" stroke="#6f6f6e" stroke-linecap="round" stroke-linejoin="round" stroke-width="0.4"/>
      <path id="패스_828" data-name="패스 828" d="M51.786,23.121,53.8,16.056l1.279-4.735" transform="translate(132.387 461.177)" fill="none" stroke="#6f6f6e" stroke-linecap="round" stroke-linejoin="round" stroke-width="0.4"/>
      <path id="패스_829" data-name="패스 829" d="M57.975,19q-2.819-2.642-5.634-5.287" transform="translate(133.465 465.299)" fill="none" stroke="#6f6f6e" stroke-linecap="round" stroke-linejoin="round" stroke-width="0.4"/>
      <path id="패스_830" data-name="패스 830" d="M54.941,19.17l5.943-3.583L52.7,12.435" transform="translate(134.133 462.813)" fill="none" stroke="#6f6f6e" stroke-linecap="round" stroke-linejoin="round" stroke-width="0.4"/>
      <path id="패스_831" data-name="패스 831" d="M54.1,17.106q-3.066.773-6.12,1.552c1.217-2.436,3.854-7.885,3.854-7.885" transform="translate(124.977 460.417)" fill="none" stroke="#6f6f6e" stroke-linecap="round" stroke-linejoin="round" stroke-width="0.4"/>
      <line id="선_758" data-name="선 758" y1="5.172" x2="3.528" transform="translate(169.372 479.127)" fill="none" stroke="#6f6f6e" stroke-linecap="round" stroke-linejoin="round" stroke-width="0.4"/>
      <path id="패스_832" data-name="패스 832" d="M56.467,11.569q2.4,2.623,4.8,5.26c-1.749.8-3.661,1.761-5.4,2.564" transform="translate(140.554 461.165)" fill="none" stroke="#6f6f6e" stroke-linecap="round" stroke-linejoin="round" stroke-width="0.4"/>
    </g>
  </g>
</svg>
