<svg xmlns="http://www.w3.org/2000/svg" width="32.6" height="35.495" viewBox="0 0 32.6 35.495">
  <g id="그룹_16" data-name="그룹 16" transform="translate(-112.994 -439.994)">
    <path id="패스_817" data-name="패스 817" d="M30.986,34.91q-.251-7.488-.5-14.978l-5.475,2.089,5.018-3.485.05-6.581,3.174,15.8,4.035-11.347L37.244,4.645l4.419-4.1L38.812,5.423l.156,11.821,9.748.5,3.719,4.447-7.1-3.311-6.525.108-3.589,9.494,6.152-.8-6.046,2.061-.014,5.122q-2.165.025-4.327.045" transform="translate(92.96 439.65)" fill="#884b32" stroke="#707070" stroke-width="0.4"/>
    <path id="패스_818" data-name="패스 818" d="M30.986,34.91q-.251-7.488-.5-14.978l-5.475,2.089,5.018-3.485.05-6.581,3.174,15.8,4.035-11.347L37.244,4.645l4.419-4.1L38.812,5.423l.156,11.821,9.748.5,3.719,4.447-7.1-3.311-6.525.108-3.589,9.494,6.152-.8-6.046,2.061-.014,5.122Q33.148,34.89,30.986,34.91Z" transform="translate(92.96 439.65)" fill="none" stroke="#6f6f6e" stroke-linecap="round" stroke-linejoin="round" stroke-width="0.4"/>
    <path id="패스_819" data-name="패스 819" d="M23.011,15.613c1.594-.769,3.806.705,6.565.123a29.591,29.591,0,0,1,6.565-.637,29.282,29.282,0,0,1,6.254.66c2.693.582,4.858-.908,6.423-.146" transform="translate(90.25 459.411)" fill="none" stroke="#6f6f6e" stroke-linecap="round" stroke-linejoin="round" stroke-width="0.4"/>
    <path id="패스_820" data-name="패스 820" d="M36.333,9.507a2.89,2.89,0,0,0-1.618,1.943,3.907,3.907,0,0,0,.87,2.467,6.884,6.884,0,0,0,.674.92,4.089,4.089,0,0,0,1-2.273,4.259,4.259,0,0,0-.922-3.056" transform="translate(106.121 451.822)" fill="#30770b" stroke="#707070" stroke-width="0.4"/>
    <path id="패스_821" data-name="패스 821" d="M36.333,9.507a2.89,2.89,0,0,0-1.618,1.943,3.907,3.907,0,0,0,.87,2.467,6.884,6.884,0,0,0,.674.92,4.089,4.089,0,0,0,1-2.273A4.259,4.259,0,0,0,36.333,9.507Z" transform="translate(106.121 451.822)" fill="none" stroke="#6f6f6e" stroke-linecap="round" stroke-linejoin="round" stroke-width="0.4"/>
  </g>
</svg>
