<svg xmlns="http://www.w3.org/2000/svg" xmlns:xlink="http://www.w3.org/1999/xlink" width="105" height="116" viewBox="0 0 105 116">
  <defs>
    <filter id="사각형_8758" x="0" y="0" width="105" height="116" filterUnits="userSpaceOnUse">
      <feOffset dx="3" dy="3" input="SourceAlpha"/>
      <feGaussianBlur stdDeviation="7.5" result="blur"/>
      <feFlood flood-opacity="0.102"/>
      <feComposite operator="in" in2="blur"/>
      <feComposite in="SourceGraphic"/>
    </filter>
  </defs>
  <g id="그룹_259" data-name="그룹 259" transform="translate(-4769.5 -1423.5)">
    <g id="그룹_198" data-name="그룹 198" transform="translate(3796 35)" opacity="0.85">
      <g transform="matrix(1, 0, 0, 1, 973.5, 1388.5)" filter="url(#사각형_8758)">
        <rect id="사각형_8758-2" data-name="사각형 8758" width="60" height="71" rx="8" transform="translate(19.5 19.5)" fill="#fff"/>
      </g>
      <path id="다각형_3" data-name="다각형 3" d="M5,0l5,9H0Z" transform="translate(1027 1488) rotate(180)" fill="#fff"/>
    </g>
    <g id="그룹_16" data-name="그룹 16" transform="translate(4685.047 1016.805)">
      <path id="패스_817" data-name="패스 817" d="M32.539,43.843q-.316-9.434-.63-18.871l-6.9,2.632,6.322-4.391.063-8.292,4,19.907,5.084-14.3L40.424,5.711,45.991.545,42.4,6.691l.2,14.894,12.282.63,4.686,5.6-8.946-4.172-8.221.136L37.875,35.744l7.751-1.008-7.618,2.6-.018,6.453q-2.728.031-5.452.057" transform="translate(94.184 439.65)" fill="#884b32" stroke="#707070" stroke-width="0.4"/>
      <path id="패스_818" data-name="패스 818" d="M32.539,43.843q-.316-9.434-.63-18.871l-6.9,2.632,6.322-4.391.063-8.292,4,19.907,5.084-14.3L40.424,5.711,45.991.545,42.4,6.691l.2,14.894,12.282.63,4.686,5.6-8.946-4.172-8.221.136L37.875,35.744l7.751-1.008-7.618,2.6-.018,6.453Q35.263,43.817,32.539,43.843Z" transform="translate(94.184 439.65)" fill="none" stroke="#6f6f6e" stroke-linecap="round" stroke-linejoin="round" stroke-width="0.4"/>
      <path id="패스_819" data-name="패스 819" d="M23.011,15.747c2.008-.969,4.8.888,8.271.155a37.283,37.283,0,0,1,8.271-.8,36.893,36.893,0,0,1,7.88.832c3.393.733,6.121-1.144,8.093-.184" transform="translate(90.25 468.33)" fill="none" stroke="#6f6f6e" stroke-linecap="round" stroke-linejoin="round" stroke-width="0.4"/>
      <path id="패스_820" data-name="패스 820" d="M36.754,9.507a3.641,3.641,0,0,0-2.039,2.448,4.923,4.923,0,0,0,1.1,3.108,8.673,8.673,0,0,0,.849,1.159,5.152,5.152,0,0,0,1.26-2.864,5.366,5.366,0,0,0-1.162-3.85" transform="translate(113.289 457.315)" fill="#30770b" stroke="#707070" stroke-width="0.4"/>
      <path id="패스_821" data-name="패스 821" d="M36.754,9.507a3.641,3.641,0,0,0-2.039,2.448,4.923,4.923,0,0,0,1.1,3.108,8.673,8.673,0,0,0,.849,1.159,5.152,5.152,0,0,0,1.26-2.864A5.366,5.366,0,0,0,36.754,9.507Z" transform="translate(113.289 457.315)" fill="none" stroke="#6f6f6e" stroke-linecap="round" stroke-linejoin="round" stroke-width="0.4"/>
    </g>
  </g>
</svg>
