<svg xmlns="http://www.w3.org/2000/svg" xmlns:xlink="http://www.w3.org/1999/xlink" width="105" height="116" viewBox="0 0 105 116">
  <defs>
    <filter id="사각형_8758" x="0" y="0" width="105" height="116" filterUnits="userSpaceOnUse">
      <feOffset dx="3" dy="3" input="SourceAlpha"/>
      <feGaussianBlur stdDeviation="7.5" result="blur"/>
      <feFlood flood-opacity="0.102"/>
      <feComposite operator="in" in2="blur"/>
      <feComposite in="SourceGraphic"/>
    </filter>
  </defs>
  <g id="그룹_261" data-name="그룹 261" transform="translate(-4917.5 -1423.5)">
    <g id="그룹_200" data-name="그룹 200" transform="translate(3944 35)" opacity="0.85">
      <g transform="matrix(1, 0, 0, 1, 973.5, 1388.5)" filter="url(#사각형_8758)">
        <rect id="사각형_8758-2" data-name="사각형 8758" width="60" height="71" rx="8" transform="translate(19.5 19.5)" fill="#fff"/>
      </g>
      <path id="다각형_3" data-name="다각형 3" d="M5,0l5,9H0Z" transform="translate(1027 1488) rotate(180)" fill="#fff"/>
    </g>
    <g id="그룹_6" data-name="그룹 6" transform="translate(4242.263 1006.2)">
      <path id="패스_695" data-name="패스 695" d="M278.762,17.933s-5.77-.519-5.77,4.6,5.77,5.121,5.77,5.121h31.963s5.829-.462,5.829-7.308-6.79-6.615-6.79-6.615-1.73-8.689-9.671-8.689a9.614,9.614,0,0,0-9.609,7.019c-3.929-.858-7.81.012-9.991,2.359a6.935,6.935,0,0,0-1.73,3.51" transform="translate(429.745 445.762)" fill="#c0bfbf" stroke="#707070" stroke-width="0.4"/>
      <path id="패스_696" data-name="패스 696" d="M278.762,17.933s-5.77-.519-5.77,4.6,5.77,5.121,5.77,5.121h31.963s5.829-.462,5.829-7.308-6.79-6.615-6.79-6.615-1.73-8.689-9.671-8.689a9.614,9.614,0,0,0-9.609,7.019c-3.929-.858-7.81.012-9.991,2.359a6.935,6.935,0,0,0-1.73,3.51Z" transform="translate(429.745 445.762)" fill="none" stroke="#6f6f6e" stroke-linecap="round" stroke-linejoin="round" stroke-width="0.4"/>
      <path id="패스_697" data-name="패스 697" d="M277.988,16.537a5.739,5.739,0,0,1-.9,1.065c-.431.4-1.088.88-1.126,1.36a.635.635,0,0,0,.073.369.762.762,0,0,0,.713.378c.72-.06,1.173-1.356,1.241-3.173" transform="translate(433.612 460.77)" fill="#7c8196" stroke="#707070" stroke-width="0.4"/>
      <path id="패스_698" data-name="패스 698" d="M277.988,16.537a5.739,5.739,0,0,1-.9,1.065c-.431.4-1.088.88-1.126,1.36a.635.635,0,0,0,.073.369.762.762,0,0,0,.713.378C277.466,19.65,277.921,18.359,277.988,16.537Z" transform="translate(433.612 460.77)" fill="none" stroke="#6f6f6e" stroke-linecap="round" stroke-linejoin="round" stroke-width="0.4"/>
      <path id="패스_699" data-name="패스 699" d="M276.388,19.589a5.741,5.741,0,0,1-.9,1.065c-.431.4-1.088.88-1.126,1.36a.634.634,0,0,0,.073.369.763.763,0,0,0,.715.378c.717-.06,1.173-1.356,1.238-3.173" transform="translate(431.522 464.756)" fill="#7c8196" stroke="#707070" stroke-width="0.4"/>
      <path id="패스_700" data-name="패스 700" d="M276.388,19.589a5.741,5.741,0,0,1-.9,1.065c-.431.4-1.088.88-1.126,1.36a.634.634,0,0,0,.073.369.763.763,0,0,0,.715.378C275.866,22.7,276.321,21.406,276.388,19.589Z" transform="translate(431.522 464.756)" fill="none" stroke="#6f6f6e" stroke-linecap="round" stroke-linejoin="round" stroke-width="0.4"/>
      <path id="패스_701" data-name="패스 701" d="M280.91,16.537a5.736,5.736,0,0,1-.9,1.065c-.431.4-1.088.88-1.126,1.36a.635.635,0,0,0,.073.369.762.762,0,0,0,.713.378c.72-.06,1.173-1.356,1.241-3.173" transform="translate(437.427 460.77)" fill="#7c8196" stroke="#707070" stroke-width="0.4"/>
      <path id="패스_702" data-name="패스 702" d="M280.91,16.537a5.736,5.736,0,0,1-.9,1.065c-.431.4-1.088.88-1.126,1.36a.635.635,0,0,0,.073.369.762.762,0,0,0,.713.378C280.389,19.65,280.843,18.359,280.91,16.537Z" transform="translate(437.427 460.77)" fill="none" stroke="#6f6f6e" stroke-linecap="round" stroke-linejoin="round" stroke-width="0.4"/>
      <path id="패스_703" data-name="패스 703" d="M279.31,19.589a5.74,5.74,0,0,1-.9,1.065c-.431.4-1.088.88-1.126,1.36a.634.634,0,0,0,.073.369.762.762,0,0,0,.713.378c.72-.06,1.173-1.356,1.241-3.173" transform="translate(435.338 464.756)" fill="#7c8196" stroke="#707070" stroke-width="0.4"/>
      <path id="패스_704" data-name="패스 704" d="M279.31,19.589a5.74,5.74,0,0,1-.9,1.065c-.431.4-1.088.88-1.126,1.36a.634.634,0,0,0,.073.369.762.762,0,0,0,.713.378C278.789,22.7,279.243,21.406,279.31,19.589Z" transform="translate(435.338 464.756)" fill="none" stroke="#6f6f6e" stroke-linecap="round" stroke-linejoin="round" stroke-width="0.4"/>
      <path id="패스_705" data-name="패스 705" d="M283.832,16.537a5.738,5.738,0,0,1-.9,1.065c-.431.4-1.088.88-1.126,1.36a.634.634,0,0,0,.073.369.762.762,0,0,0,.713.378c.72-.06,1.173-1.356,1.241-3.173" transform="translate(441.244 460.77)" fill="#7c8196" stroke="#707070" stroke-width="0.4"/>
      <path id="패스_706" data-name="패스 706" d="M283.832,16.537a5.738,5.738,0,0,1-.9,1.065c-.431.4-1.088.88-1.126,1.36a.634.634,0,0,0,.073.369.762.762,0,0,0,.713.378C283.311,19.65,283.765,18.359,283.832,16.537Z" transform="translate(441.244 460.77)" fill="none" stroke="#6f6f6e" stroke-linecap="round" stroke-linejoin="round" stroke-width="0.4"/>
      <path id="패스_707" data-name="패스 707" d="M282.232,19.589a5.736,5.736,0,0,1-.9,1.065c-.431.4-1.088.88-1.126,1.36a.635.635,0,0,0,.073.369.762.762,0,0,0,.713.378c.72-.06,1.173-1.356,1.241-3.173" transform="translate(439.154 464.756)" fill="#7c8196" stroke="#707070" stroke-width="0.4"/>
      <path id="패스_708" data-name="패스 708" d="M282.232,19.589a5.736,5.736,0,0,1-.9,1.065c-.431.4-1.088.88-1.126,1.36a.635.635,0,0,0,.073.369.762.762,0,0,0,.713.378C281.711,22.7,282.165,21.406,282.232,19.589Z" transform="translate(439.154 464.756)" fill="none" stroke="#6f6f6e" stroke-linecap="round" stroke-linejoin="round" stroke-width="0.4"/>
      <path id="패스_709" data-name="패스 709" d="M286.754,16.537a5.742,5.742,0,0,1-.9,1.065c-.431.4-1.088.88-1.126,1.36a.634.634,0,0,0,.073.369.762.762,0,0,0,.713.378c.72-.06,1.173-1.356,1.241-3.173" transform="translate(445.06 460.77)" fill="#7c8196" stroke="#707070" stroke-width="0.4"/>
      <path id="패스_710" data-name="패스 710" d="M286.754,16.537a5.742,5.742,0,0,1-.9,1.065c-.431.4-1.088.88-1.126,1.36a.634.634,0,0,0,.073.369.762.762,0,0,0,.713.378C286.233,19.65,286.687,18.359,286.754,16.537Z" transform="translate(445.06 460.77)" fill="none" stroke="#6f6f6e" stroke-linecap="round" stroke-linejoin="round" stroke-width="0.4"/>
      <path id="패스_711" data-name="패스 711" d="M285.154,19.589a5.738,5.738,0,0,1-.9,1.065c-.431.4-1.088.88-1.126,1.36a.634.634,0,0,0,.073.369.762.762,0,0,0,.713.378c.72-.06,1.173-1.356,1.241-3.173" transform="translate(442.97 464.756)" fill="#7c8196" stroke="#707070" stroke-width="0.4"/>
      <path id="패스_712" data-name="패스 712" d="M285.154,19.589a5.738,5.738,0,0,1-.9,1.065c-.431.4-1.088.88-1.126,1.36a.634.634,0,0,0,.073.369.762.762,0,0,0,.713.378C284.633,22.7,285.087,21.406,285.154,19.589Z" transform="translate(442.97 464.756)" fill="none" stroke="#6f6f6e" stroke-linecap="round" stroke-linejoin="round" stroke-width="0.4"/>
      <path id="패스_713" data-name="패스 713" d="M289.676,16.537a5.742,5.742,0,0,1-.9,1.065c-.431.4-1.088.88-1.126,1.36a.635.635,0,0,0,.073.369.762.762,0,0,0,.713.378c.72-.06,1.173-1.356,1.241-3.173" transform="translate(448.875 460.77)" fill="#7c8196" stroke="#707070" stroke-width="0.4"/>
      <path id="패스_714" data-name="패스 714" d="M289.676,16.537a5.742,5.742,0,0,1-.9,1.065c-.431.4-1.088.88-1.126,1.36a.635.635,0,0,0,.073.369.762.762,0,0,0,.713.378C289.155,19.65,289.609,18.359,289.676,16.537Z" transform="translate(448.875 460.77)" fill="none" stroke="#6f6f6e" stroke-linecap="round" stroke-linejoin="round" stroke-width="0.4"/>
      <path id="패스_715" data-name="패스 715" d="M288.077,19.589a5.829,5.829,0,0,1-.9,1.065c-.429.4-1.086.88-1.126,1.36a.636.636,0,0,0,.074.369.762.762,0,0,0,.713.378c.72-.06,1.173-1.356,1.243-3.173" transform="translate(446.785 464.756)" fill="#7c8196" stroke="#707070" stroke-width="0.4"/>
      <path id="패스_716" data-name="패스 716" d="M288.077,19.589a5.829,5.829,0,0,1-.9,1.065c-.429.4-1.086.88-1.126,1.36a.636.636,0,0,0,.074.369.762.762,0,0,0,.713.378C287.554,22.7,288.008,21.406,288.077,19.589Z" transform="translate(446.785 464.756)" fill="none" stroke="#6f6f6e" stroke-linecap="round" stroke-linejoin="round" stroke-width="0.4"/>
      <path id="패스_717" data-name="패스 717" d="M277.988,22.851a5.74,5.74,0,0,1-.9,1.065c-.431.4-1.088.88-1.126,1.36a.635.635,0,0,0,.073.369.762.762,0,0,0,.713.378c.72-.06,1.173-1.356,1.241-3.173" transform="translate(433.612 469.016)" fill="#7c8196" stroke="#707070" stroke-width="0.4"/>
      <path id="패스_718" data-name="패스 718" d="M277.988,22.851a5.74,5.74,0,0,1-.9,1.065c-.431.4-1.088.88-1.126,1.36a.635.635,0,0,0,.073.369.762.762,0,0,0,.713.378C277.466,25.964,277.921,24.668,277.988,22.851Z" transform="translate(433.612 469.016)" fill="none" stroke="#6f6f6e" stroke-linecap="round" stroke-linejoin="round" stroke-width="0.4"/>
      <path id="패스_719" data-name="패스 719" d="M283.832,22.851a5.738,5.738,0,0,1-.9,1.065c-.431.4-1.088.88-1.126,1.36a.634.634,0,0,0,.073.369.762.762,0,0,0,.713.378c.72-.06,1.173-1.356,1.241-3.173" transform="translate(441.244 469.016)" fill="#7c8196" stroke="#707070" stroke-width="0.4"/>
      <path id="패스_720" data-name="패스 720" d="M283.832,22.851a5.738,5.738,0,0,1-.9,1.065c-.431.4-1.088.88-1.126,1.36a.634.634,0,0,0,.073.369.762.762,0,0,0,.713.378C283.311,25.964,283.765,24.668,283.832,22.851Z" transform="translate(441.244 469.016)" fill="none" stroke="#6f6f6e" stroke-linecap="round" stroke-linejoin="round" stroke-width="0.4"/>
    </g>
  </g>
</svg>
