<svg xmlns="http://www.w3.org/2000/svg" xmlns:xlink="http://www.w3.org/1999/xlink" width="105" height="116" viewBox="0 0 105 116">
  <defs>
    <filter id="사각형_8758" x="0" y="0" width="105" height="116" filterUnits="userSpaceOnUse">
      <feOffset dx="3" dy="3" input="SourceAlpha"/>
      <feGaussianBlur stdDeviation="7.5" result="blur"/>
      <feFlood flood-opacity="0.102"/>
      <feComposite operator="in" in2="blur"/>
      <feComposite in="SourceGraphic"/>
    </filter>
  </defs>
  <g id="그룹_262" data-name="그룹 262" transform="translate(-4991.5 -1423.5)">
    <g id="그룹_201" data-name="그룹 201" transform="translate(4018 35)" opacity="0.85">
      <g transform="matrix(1, 0, 0, 1, 973.5, 1388.5)" filter="url(#사각형_8758)">
        <rect id="사각형_8758-2" data-name="사각형 8758" width="60" height="71" rx="8" transform="translate(19.5 19.5)" fill="#fff"/>
      </g>
      <path id="다각형_3" data-name="다각형 3" d="M5,0l5,9H0Z" transform="translate(1027 1488) rotate(180)" fill="#fff"/>
    </g>
    <g id="그룹_2" data-name="그룹 2" transform="translate(4077.005 1006.195)">
      <path id="패스_755" data-name="패스 755" d="M379.567,17.122a.769.769,0,1,1-.769-.769.769.769,0,0,1,.769.769" transform="translate(572.386 461.119)" fill="#c0bfbf" stroke="#707070" stroke-width="0.4"/>
      <path id="패스_756" data-name="패스 756" d="M379.567,17.122a.769.769,0,1,1-.769-.769A.769.769,0,0,1,379.567,17.122Z" transform="translate(572.386 461.119)" fill="none" stroke="#6f6f6e" stroke-linecap="round" stroke-linejoin="round" stroke-width="0.4"/>
      <path id="패스_757" data-name="패스 757" d="M382.663,17.122a.769.769,0,1,1-.769-.769.769.769,0,0,1,.769.769" transform="translate(576.591 461.119)" fill="#c0bfbf" stroke="#707070" stroke-width="0.4"/>
      <path id="패스_758" data-name="패스 758" d="M382.663,17.122a.769.769,0,1,1-.769-.769A.769.769,0,0,1,382.663,17.122Z" transform="translate(576.591 461.119)" fill="none" stroke="#6f6f6e" stroke-linecap="round" stroke-linejoin="round" stroke-width="0.4"/>
      <path id="패스_759" data-name="패스 759" d="M378.6,19.884a.769.769,0,1,1-.769-.769.769.769,0,0,1,.769.769" transform="translate(571.068 464.87)" fill="#c0bfbf" stroke="#707070" stroke-width="0.4"/>
      <path id="패스_760" data-name="패스 760" d="M378.6,19.884a.769.769,0,1,1-.769-.769A.769.769,0,0,1,378.6,19.884Z" transform="translate(571.068 464.87)" fill="none" stroke="#6f6f6e" stroke-linecap="round" stroke-linejoin="round" stroke-width="0.4"/>
      <path id="패스_761" data-name="패스 761" d="M384.978,18.751a.769.769,0,1,1-.769-.769.769.769,0,0,1,.769.769" transform="translate(579.735 463.331)" fill="#c0bfbf" stroke="#707070" stroke-width="0.4"/>
      <path id="패스_762" data-name="패스 762" d="M384.978,18.751a.769.769,0,1,1-.769-.769A.769.769,0,0,1,384.978,18.751Z" transform="translate(579.735 463.331)" fill="none" stroke="#6f6f6e" stroke-linecap="round" stroke-linejoin="round" stroke-width="0.4"/>
      <path id="패스_763" data-name="패스 763" d="M384.1,21.343a.769.769,0,1,1-.769-.769.769.769,0,0,1,.769.769" transform="translate(578.539 466.852)" fill="#c0bfbf" stroke="#707070" stroke-width="0.4"/>
      <path id="패스_764" data-name="패스 764" d="M384.1,21.343a.769.769,0,1,1-.769-.769.769.769,0,0,1,.769.769Z" transform="translate(578.539 466.852)" fill="none" stroke="#6f6f6e" stroke-linecap="round" stroke-linejoin="round" stroke-width="0.4"/>
      <path id="패스_765" data-name="패스 765" d="M383.126,24.1a.769.769,0,1,1-.769-.769.769.769,0,0,1,.769.769" transform="translate(577.219 470.597)" fill="#c0bfbf" stroke="#707070" stroke-width="0.4"/>
      <path id="패스_766" data-name="패스 766" d="M383.126,24.1a.769.769,0,1,1-.769-.769A.769.769,0,0,1,383.126,24.1Z" transform="translate(577.219 470.597)" fill="none" stroke="#6f6f6e" stroke-linecap="round" stroke-linejoin="round" stroke-width="0.4"/>
      <path id="패스_767" data-name="패스 767" d="M386.985,20.719a.77.77,0,1,1-.771-.769.77.77,0,0,1,.771.769" transform="translate(582.456 466.004)" fill="#c0bfbf" stroke="#707070" stroke-width="0.4"/>
      <path id="패스_768" data-name="패스 768" d="M386.985,20.719a.77.77,0,1,1-.771-.769.77.77,0,0,1,.771.769Z" transform="translate(582.456 466.004)" fill="none" stroke="#6f6f6e" stroke-linecap="round" stroke-linejoin="round" stroke-width="0.4"/>
      <path id="패스_769" data-name="패스 769" d="M390.39,19.875a.769.769,0,1,1-.769-.769.769.769,0,0,1,.769.769" transform="translate(587.084 464.858)" fill="#c0bfbf" stroke="#707070" stroke-width="0.4"/>
      <path id="패스_770" data-name="패스 770" d="M390.39,19.875a.769.769,0,1,1-.769-.769.769.769,0,0,1,.769.769Z" transform="translate(587.084 464.858)" fill="none" stroke="#6f6f6e" stroke-linecap="round" stroke-linejoin="round" stroke-width="0.4"/>
      <path id="패스_771" data-name="패스 771" d="M391.361,17.122a.769.769,0,1,1-.769-.769.769.769,0,0,1,.769.769" transform="translate(588.403 461.119)" fill="#c0bfbf" stroke="#707070" stroke-width="0.4"/>
      <path id="패스_772" data-name="패스 772" d="M391.361,17.122a.769.769,0,1,1-.769-.769A.769.769,0,0,1,391.361,17.122Z" transform="translate(588.403 461.119)" fill="none" stroke="#6f6f6e" stroke-linecap="round" stroke-linejoin="round" stroke-width="0.4"/>
      <path id="패스_781" data-name="패스 781" d="M380.356,18.224s-5.9-.531-5.9,4.707,5.9,5.237,5.9,5.237h32.685S419,27.7,419,20.7s-6.944-6.765-6.944-6.765-1.769-8.885-9.89-8.885a9.831,9.831,0,0,0-9.826,7.178c-4.018-.877-7.987.012-10.217,2.412a7.092,7.092,0,0,0-1.769,3.589" transform="translate(567.539 445.762)" fill="#c0bfbf" stroke="#707070" stroke-width="0.4"/>
      <path id="패스_782" data-name="패스 782" d="M380.356,18.224s-5.9-.531-5.9,4.707,5.9,5.237,5.9,5.237h32.685S419,27.7,419,20.7s-6.944-6.765-6.944-6.765-1.769-8.885-9.89-8.885a9.831,9.831,0,0,0-9.826,7.178c-4.018-.877-7.987.012-10.217,2.412a7.092,7.092,0,0,0-1.767,3.584Z" transform="translate(567.539 445.762)" fill="none" stroke="#6f6f6e" stroke-linecap="round" stroke-linejoin="round" stroke-width="0.4"/>
      <line id="선_759" data-name="선 759" y2="4.053" transform="translate(955.63 484.14)" fill="none" stroke="#aaaed8" stroke-linecap="round" stroke-linejoin="round" stroke-width="0.4"/>
      <line id="선_760" data-name="선 760" x2="0.29" y2="0.37" transform="translate(955.326 484.484)" fill="none" stroke="#aaaed8" stroke-linecap="round" stroke-linejoin="round" stroke-width="0.4"/>
      <line id="선_761" data-name="선 761" x1="0.29" y2="0.37" transform="translate(955.644 484.484)" fill="none" stroke="#aaaed8" stroke-linecap="round" stroke-linejoin="round" stroke-width="0.4"/>
      <line id="선_762" data-name="선 762" x2="0.29" y2="0.37" transform="translate(955.326 485.078)" fill="none" stroke="#aaaed8" stroke-linecap="round" stroke-linejoin="round" stroke-width="0.4"/>
      <line id="선_763" data-name="선 763" x1="0.29" y2="0.37" transform="translate(955.644 485.078)" fill="none" stroke="#aaaed8" stroke-linecap="round" stroke-linejoin="round" stroke-width="0.4"/>
      <line id="선_764" data-name="선 764" y1="0.37" x2="0.29" transform="translate(955.326 487.428)" fill="none" stroke="#aaaed8" stroke-linecap="round" stroke-linejoin="round" stroke-width="0.4"/>
      <line id="선_765" data-name="선 765" x1="0.29" y1="0.37" transform="translate(955.644 487.428)" fill="none" stroke="#aaaed8" stroke-linecap="round" stroke-linejoin="round" stroke-width="0.4"/>
      <line id="선_766" data-name="선 766" y1="0.37" x2="0.29" transform="translate(955.326 486.834)" fill="none" stroke="#aaaed8" stroke-linecap="round" stroke-linejoin="round" stroke-width="0.4"/>
      <line id="선_767" data-name="선 767" x1="0.29" y1="0.37" transform="translate(955.644 486.834)" fill="none" stroke="#aaaed8" stroke-linecap="round" stroke-linejoin="round" stroke-width="0.4"/>
      <line id="선_768" data-name="선 768" x2="2.867" y2="2.867" transform="translate(954.197 484.734)" fill="none" stroke="#aaaed8" stroke-linecap="round" stroke-linejoin="round" stroke-width="0.4"/>
      <line id="선_769" data-name="선 769" x2="0.467" y2="0.057" transform="translate(954.225 485.191)" fill="none" stroke="#aaaed8" stroke-linecap="round" stroke-linejoin="round" stroke-width="0.4"/>
      <line id="선_770" data-name="선 770" x2="0.057" y2="0.467" transform="translate(954.655 484.762)" fill="none" stroke="#aaaed8" stroke-linecap="round" stroke-linejoin="round" stroke-width="0.4"/>
      <line id="선_771" data-name="선 771" x2="0.467" y2="0.057" transform="translate(954.646 485.612)" fill="none" stroke="#aaaed8" stroke-linecap="round" stroke-linejoin="round" stroke-width="0.4"/>
      <line id="선_772" data-name="선 772" x2="0.057" y2="0.467" transform="translate(955.075 485.182)" fill="none" stroke="#aaaed8" stroke-linecap="round" stroke-linejoin="round" stroke-width="0.4"/>
      <line id="선_773" data-name="선 773" x1="0.057" y1="0.467" transform="translate(956.512 487.068)" fill="none" stroke="#aaaed8" stroke-linecap="round" stroke-linejoin="round" stroke-width="0.4"/>
      <line id="선_774" data-name="선 774" x1="0.467" y1="0.057" transform="translate(956.531 487.049)" fill="none" stroke="#aaaed8" stroke-linecap="round" stroke-linejoin="round" stroke-width="0.4"/>
      <line id="선_775" data-name="선 775" x1="0.057" y1="0.467" transform="translate(956.092 486.648)" fill="none" stroke="#aaaed8" stroke-linecap="round" stroke-linejoin="round" stroke-width="0.4"/>
      <line id="선_776" data-name="선 776" x1="0.467" y1="0.057" transform="translate(956.111 486.629)" fill="none" stroke="#aaaed8" stroke-linecap="round" stroke-linejoin="round" stroke-width="0.4"/>
      <line id="선_777" data-name="선 777" x2="4.053" transform="translate(953.603 486.167)" fill="none" stroke="#aaaed8" stroke-linecap="round" stroke-linejoin="round" stroke-width="0.4"/>
      <line id="선_778" data-name="선 778" y1="0.29" x2="0.37" transform="translate(953.947 486.18)" fill="none" stroke="#aaaed8" stroke-linecap="round" stroke-linejoin="round" stroke-width="0.4"/>
      <line id="선_779" data-name="선 779" x2="0.37" y2="0.29" transform="translate(953.947 485.863)" fill="none" stroke="#aaaed8" stroke-linecap="round" stroke-linejoin="round" stroke-width="0.4"/>
      <line id="선_780" data-name="선 780" y1="0.29" x2="0.37" transform="translate(954.542 486.18)" fill="none" stroke="#aaaed8" stroke-linecap="round" stroke-linejoin="round" stroke-width="0.4"/>
      <line id="선_781" data-name="선 781" x2="0.37" y2="0.29" transform="translate(954.542 485.863)" fill="none" stroke="#aaaed8" stroke-linecap="round" stroke-linejoin="round" stroke-width="0.4"/>
      <line id="선_782" data-name="선 782" x1="0.37" y1="0.29" transform="translate(956.891 486.18)" fill="none" stroke="#aaaed8" stroke-linecap="round" stroke-linejoin="round" stroke-width="0.4"/>
      <line id="선_783" data-name="선 783" x1="0.37" y2="0.29" transform="translate(956.891 485.863)" fill="none" stroke="#aaaed8" stroke-linecap="round" stroke-linejoin="round" stroke-width="0.4"/>
      <line id="선_784" data-name="선 784" x1="0.37" y1="0.29" transform="translate(956.297 486.18)" fill="none" stroke="#aaaed8" stroke-linecap="round" stroke-linejoin="round" stroke-width="0.4"/>
      <line id="선_785" data-name="선 785" x1="0.37" y2="0.29" transform="translate(956.297 485.863)" fill="none" stroke="#aaaed8" stroke-linecap="round" stroke-linejoin="round" stroke-width="0.4"/>
      <line id="선_786" data-name="선 786" y1="2.867" x2="2.867" transform="translate(954.197 484.732)" fill="none" stroke="#aaaed8" stroke-linecap="round" stroke-linejoin="round" stroke-width="0.4"/>
      <line id="선_787" data-name="선 787" y1="0.467" x2="0.057" transform="translate(954.655 487.105)" fill="none" stroke="#aaaed8" stroke-linecap="round" stroke-linejoin="round" stroke-width="0.4"/>
      <line id="선_788" data-name="선 788" y1="0.057" x2="0.467" transform="translate(954.225 487.085)" fill="none" stroke="#aaaed8" stroke-linecap="round" stroke-linejoin="round" stroke-width="0.4"/>
      <line id="선_789" data-name="선 789" y1="0.467" x2="0.057" transform="translate(955.075 486.684)" fill="none" stroke="#aaaed8" stroke-linecap="round" stroke-linejoin="round" stroke-width="0.4"/>
      <line id="선_790" data-name="선 790" y1="0.057" x2="0.467" transform="translate(954.646 486.665)" fill="none" stroke="#aaaed8" stroke-linecap="round" stroke-linejoin="round" stroke-width="0.4"/>
      <line id="선_791" data-name="선 791" x1="0.467" y2="0.057" transform="translate(956.531 485.228)" fill="none" stroke="#aaaed8" stroke-linecap="round" stroke-linejoin="round" stroke-width="0.4"/>
      <line id="선_792" data-name="선 792" x1="0.057" y2="0.467" transform="translate(956.512 484.798)" fill="none" stroke="#aaaed8" stroke-linecap="round" stroke-linejoin="round" stroke-width="0.4"/>
      <line id="선_793" data-name="선 793" x1="0.467" y2="0.057" transform="translate(956.111 485.648)" fill="none" stroke="#aaaed8" stroke-linecap="round" stroke-linejoin="round" stroke-width="0.4"/>
      <line id="선_794" data-name="선 794" x1="0.057" y2="0.467" transform="translate(956.092 485.219)" fill="none" stroke="#aaaed8" stroke-linecap="round" stroke-linejoin="round" stroke-width="0.4"/>
      <line id="선_795" data-name="선 795" y2="4.053" transform="translate(946.462 489.263)" fill="none" stroke="#aaaed8" stroke-linecap="round" stroke-linejoin="round" stroke-width="0.4"/>
      <line id="선_796" data-name="선 796" x2="0.29" y2="0.37" transform="translate(946.159 489.607)" fill="none" stroke="#aaaed8" stroke-linecap="round" stroke-linejoin="round" stroke-width="0.4"/>
      <line id="선_797" data-name="선 797" x1="0.29" y2="0.37" transform="translate(946.476 489.607)" fill="none" stroke="#aaaed8" stroke-linecap="round" stroke-linejoin="round" stroke-width="0.4"/>
      <line id="선_798" data-name="선 798" x2="0.29" y2="0.37" transform="translate(946.159 490.201)" fill="none" stroke="#aaaed8" stroke-linecap="round" stroke-linejoin="round" stroke-width="0.4"/>
      <line id="선_799" data-name="선 799" x1="0.29" y2="0.37" transform="translate(946.476 490.201)" fill="none" stroke="#aaaed8" stroke-linecap="round" stroke-linejoin="round" stroke-width="0.4"/>
      <line id="선_800" data-name="선 800" y1="0.37" x2="0.29" transform="translate(946.159 492.551)" fill="none" stroke="#aaaed8" stroke-linecap="round" stroke-linejoin="round" stroke-width="0.4"/>
      <line id="선_801" data-name="선 801" x1="0.29" y1="0.37" transform="translate(946.476 492.551)" fill="none" stroke="#aaaed8" stroke-linecap="round" stroke-linejoin="round" stroke-width="0.4"/>
      <line id="선_802" data-name="선 802" y1="0.37" x2="0.29" transform="translate(946.159 491.957)" fill="none" stroke="#aaaed8" stroke-linecap="round" stroke-linejoin="round" stroke-width="0.4"/>
      <line id="선_803" data-name="선 803" x1="0.29" y1="0.37" transform="translate(946.476 491.957)" fill="none" stroke="#aaaed8" stroke-linecap="round" stroke-linejoin="round" stroke-width="0.4"/>
      <line id="선_804" data-name="선 804" x2="2.867" y2="2.867" transform="translate(945.029 489.857)" fill="none" stroke="#aaaed8" stroke-linecap="round" stroke-linejoin="round" stroke-width="0.4"/>
      <line id="선_805" data-name="선 805" x2="0.467" y2="0.057" transform="translate(945.058 490.315)" fill="none" stroke="#aaaed8" stroke-linecap="round" stroke-linejoin="round" stroke-width="0.4"/>
      <line id="선_806" data-name="선 806" x2="0.057" y2="0.467" transform="translate(945.487 489.885)" fill="none" stroke="#aaaed8" stroke-linecap="round" stroke-linejoin="round" stroke-width="0.4"/>
      <line id="선_807" data-name="선 807" x2="0.467" y2="0.057" transform="translate(945.478 490.735)" fill="none" stroke="#aaaed8" stroke-linecap="round" stroke-linejoin="round" stroke-width="0.4"/>
      <line id="선_808" data-name="선 808" x2="0.057" y2="0.467" transform="translate(945.908 490.306)" fill="none" stroke="#aaaed8" stroke-linecap="round" stroke-linejoin="round" stroke-width="0.4"/>
      <line id="선_809" data-name="선 809" x1="0.057" y1="0.467" transform="translate(947.345 492.192)" fill="none" stroke="#aaaed8" stroke-linecap="round" stroke-linejoin="round" stroke-width="0.4"/>
      <line id="선_810" data-name="선 810" x1="0.467" y1="0.057" transform="translate(947.364 492.172)" fill="none" stroke="#aaaed8" stroke-linecap="round" stroke-linejoin="round" stroke-width="0.4"/>
      <line id="선_811" data-name="선 811" x1="0.057" y1="0.467" transform="translate(946.924 491.771)" fill="none" stroke="#aaaed8" stroke-linecap="round" stroke-linejoin="round" stroke-width="0.4"/>
      <line id="선_812" data-name="선 812" x1="0.467" y1="0.057" transform="translate(946.944 491.752)" fill="none" stroke="#aaaed8" stroke-linecap="round" stroke-linejoin="round" stroke-width="0.4"/>
      <line id="선_813" data-name="선 813" x2="4.053" transform="translate(944.436 491.29)" fill="none" stroke="#aaaed8" stroke-linecap="round" stroke-linejoin="round" stroke-width="0.4"/>
      <line id="선_814" data-name="선 814" y1="0.29" x2="0.37" transform="translate(944.779 491.304)" fill="none" stroke="#aaaed8" stroke-linecap="round" stroke-linejoin="round" stroke-width="0.4"/>
      <line id="선_815" data-name="선 815" x2="0.37" y2="0.29" transform="translate(944.779 490.986)" fill="none" stroke="#aaaed8" stroke-linecap="round" stroke-linejoin="round" stroke-width="0.4"/>
      <line id="선_816" data-name="선 816" y1="0.29" x2="0.37" transform="translate(945.374 491.304)" fill="none" stroke="#aaaed8" stroke-linecap="round" stroke-linejoin="round" stroke-width="0.4"/>
      <line id="선_817" data-name="선 817" x2="0.37" y2="0.29" transform="translate(945.374 490.986)" fill="none" stroke="#aaaed8" stroke-linecap="round" stroke-linejoin="round" stroke-width="0.4"/>
      <line id="선_818" data-name="선 818" x1="0.37" y1="0.29" transform="translate(947.724 491.304)" fill="none" stroke="#aaaed8" stroke-linecap="round" stroke-linejoin="round" stroke-width="0.4"/>
      <line id="선_819" data-name="선 819" x1="0.37" y2="0.29" transform="translate(947.724 490.986)" fill="none" stroke="#aaaed8" stroke-linecap="round" stroke-linejoin="round" stroke-width="0.4"/>
      <line id="선_820" data-name="선 820" x1="0.37" y1="0.29" transform="translate(947.129 491.304)" fill="none" stroke="#aaaed8" stroke-linecap="round" stroke-linejoin="round" stroke-width="0.4"/>
      <line id="선_821" data-name="선 821" x1="0.37" y2="0.29" transform="translate(947.129 490.986)" fill="none" stroke="#aaaed8" stroke-linecap="round" stroke-linejoin="round" stroke-width="0.4"/>
      <line id="선_822" data-name="선 822" y1="2.867" x2="2.867" transform="translate(945.029 489.856)" fill="none" stroke="#aaaed8" stroke-linecap="round" stroke-linejoin="round" stroke-width="0.4"/>
      <line id="선_823" data-name="선 823" y1="0.467" x2="0.057" transform="translate(945.487 492.228)" fill="none" stroke="#aaaed8" stroke-linecap="round" stroke-linejoin="round" stroke-width="0.4"/>
      <line id="선_824" data-name="선 824" y1="0.057" x2="0.467" transform="translate(945.058 492.209)" fill="none" stroke="#aaaed8" stroke-linecap="round" stroke-linejoin="round" stroke-width="0.4"/>
      <line id="선_825" data-name="선 825" y1="0.467" x2="0.057" transform="translate(945.908 491.807)" fill="none" stroke="#aaaed8" stroke-linecap="round" stroke-linejoin="round" stroke-width="0.4"/>
      <line id="선_826" data-name="선 826" y1="0.057" x2="0.467" transform="translate(945.478 491.788)" fill="none" stroke="#aaaed8" stroke-linecap="round" stroke-linejoin="round" stroke-width="0.4"/>
      <line id="선_827" data-name="선 827" x1="0.467" y2="0.057" transform="translate(947.364 490.351)" fill="none" stroke="#aaaed8" stroke-linecap="round" stroke-linejoin="round" stroke-width="0.4"/>
      <line id="선_828" data-name="선 828" x1="0.057" y2="0.467" transform="translate(947.345 489.922)" fill="none" stroke="#aaaed8" stroke-linecap="round" stroke-linejoin="round" stroke-width="0.4"/>
      <line id="선_829" data-name="선 829" x1="0.467" y2="0.057" transform="translate(946.944 490.771)" fill="none" stroke="#aaaed8" stroke-linecap="round" stroke-linejoin="round" stroke-width="0.4"/>
      <line id="선_830" data-name="선 830" x1="0.057" y2="0.467" transform="translate(946.924 490.342)" fill="none" stroke="#aaaed8" stroke-linecap="round" stroke-linejoin="round" stroke-width="0.4"/>
      <line id="선_831" data-name="선 831" y2="4.054" transform="translate(971.155 477.189)" fill="none" stroke="#aaaed8" stroke-linecap="round" stroke-linejoin="round" stroke-width="0.4"/>
      <line id="선_832" data-name="선 832" x2="0.29" y2="0.37" transform="translate(970.852 477.533)" fill="none" stroke="#aaaed8" stroke-linecap="round" stroke-linejoin="round" stroke-width="0.4"/>
      <line id="선_833" data-name="선 833" x1="0.29" y2="0.37" transform="translate(971.169 477.533)" fill="none" stroke="#aaaed8" stroke-linecap="round" stroke-linejoin="round" stroke-width="0.4"/>
      <line id="선_834" data-name="선 834" x2="0.29" y2="0.37" transform="translate(970.852 478.127)" fill="none" stroke="#aaaed8" stroke-linecap="round" stroke-linejoin="round" stroke-width="0.4"/>
      <line id="선_835" data-name="선 835" x1="0.29" y2="0.37" transform="translate(971.169 478.127)" fill="none" stroke="#aaaed8" stroke-linecap="round" stroke-linejoin="round" stroke-width="0.4"/>
      <line id="선_836" data-name="선 836" y1="0.37" x2="0.29" transform="translate(970.852 480.477)" fill="none" stroke="#aaaed8" stroke-linecap="round" stroke-linejoin="round" stroke-width="0.4"/>
      <line id="선_837" data-name="선 837" x1="0.29" y1="0.37" transform="translate(971.169 480.477)" fill="none" stroke="#aaaed8" stroke-linecap="round" stroke-linejoin="round" stroke-width="0.4"/>
      <line id="선_838" data-name="선 838" y1="0.37" x2="0.29" transform="translate(970.852 479.882)" fill="none" stroke="#aaaed8" stroke-linecap="round" stroke-linejoin="round" stroke-width="0.4"/>
      <line id="선_839" data-name="선 839" x1="0.29" y1="0.37" transform="translate(971.169 479.882)" fill="none" stroke="#aaaed8" stroke-linecap="round" stroke-linejoin="round" stroke-width="0.4"/>
      <line id="선_840" data-name="선 840" x2="2.867" y2="2.867" transform="translate(969.722 477.782)" fill="none" stroke="#aaaed8" stroke-linecap="round" stroke-linejoin="round" stroke-width="0.4"/>
      <line id="선_841" data-name="선 841" x2="0.467" y2="0.057" transform="translate(969.751 478.24)" fill="none" stroke="#aaaed8" stroke-linecap="round" stroke-linejoin="round" stroke-width="0.4"/>
      <line id="선_842" data-name="선 842" x2="0.057" y2="0.467" transform="translate(970.18 477.811)" fill="none" stroke="#aaaed8" stroke-linecap="round" stroke-linejoin="round" stroke-width="0.4"/>
      <line id="선_843" data-name="선 843" x2="0.467" y2="0.057" transform="translate(970.171 478.661)" fill="none" stroke="#aaaed8" stroke-linecap="round" stroke-linejoin="round" stroke-width="0.4"/>
      <line id="선_844" data-name="선 844" x2="0.057" y2="0.467" transform="translate(970.6 478.231)" fill="none" stroke="#aaaed8" stroke-linecap="round" stroke-linejoin="round" stroke-width="0.4"/>
      <line id="선_845" data-name="선 845" x1="0.057" y1="0.467" transform="translate(972.038 480.117)" fill="none" stroke="#aaaed8" stroke-linecap="round" stroke-linejoin="round" stroke-width="0.4"/>
      <line id="선_846" data-name="선 846" x1="0.467" y1="0.057" transform="translate(972.057 480.098)" fill="none" stroke="#aaaed8" stroke-linecap="round" stroke-linejoin="round" stroke-width="0.4"/>
      <line id="선_847" data-name="선 847" x1="0.057" y1="0.467" transform="translate(971.617 479.697)" fill="none" stroke="#aaaed8" stroke-linecap="round" stroke-linejoin="round" stroke-width="0.4"/>
      <line id="선_848" data-name="선 848" x1="0.467" y1="0.057" transform="translate(971.636 479.677)" fill="none" stroke="#aaaed8" stroke-linecap="round" stroke-linejoin="round" stroke-width="0.4"/>
      <line id="선_849" data-name="선 849" x2="4.053" transform="translate(969.129 479.215)" fill="none" stroke="#aaaed8" stroke-linecap="round" stroke-linejoin="round" stroke-width="0.4"/>
      <line id="선_850" data-name="선 850" y1="0.29" x2="0.37" transform="translate(969.472 479.229)" fill="none" stroke="#aaaed8" stroke-linecap="round" stroke-linejoin="round" stroke-width="0.4"/>
      <line id="선_851" data-name="선 851" x2="0.37" y2="0.29" transform="translate(969.472 478.912)" fill="none" stroke="#aaaed8" stroke-linecap="round" stroke-linejoin="round" stroke-width="0.4"/>
      <line id="선_852" data-name="선 852" y1="0.29" x2="0.37" transform="translate(970.067 479.229)" fill="none" stroke="#aaaed8" stroke-linecap="round" stroke-linejoin="round" stroke-width="0.4"/>
      <line id="선_853" data-name="선 853" x2="0.37" y2="0.29" transform="translate(970.067 478.912)" fill="none" stroke="#aaaed8" stroke-linecap="round" stroke-linejoin="round" stroke-width="0.4"/>
      <line id="선_854" data-name="선 854" x1="0.37" y1="0.29" transform="translate(972.417 479.229)" fill="none" stroke="#aaaed8" stroke-linecap="round" stroke-linejoin="round" stroke-width="0.4"/>
      <line id="선_855" data-name="선 855" x1="0.37" y2="0.29" transform="translate(972.417 478.912)" fill="none" stroke="#aaaed8" stroke-linecap="round" stroke-linejoin="round" stroke-width="0.4"/>
      <line id="선_856" data-name="선 856" x1="0.37" y1="0.29" transform="translate(971.822 479.229)" fill="none" stroke="#aaaed8" stroke-linecap="round" stroke-linejoin="round" stroke-width="0.4"/>
      <line id="선_857" data-name="선 857" x1="0.37" y2="0.29" transform="translate(971.822 478.912)" fill="none" stroke="#aaaed8" stroke-linecap="round" stroke-linejoin="round" stroke-width="0.4"/>
      <line id="선_858" data-name="선 858" y1="2.867" x2="2.867" transform="translate(969.722 477.781)" fill="none" stroke="#aaaed8" stroke-linecap="round" stroke-linejoin="round" stroke-width="0.4"/>
      <line id="선_859" data-name="선 859" y1="0.467" x2="0.057" transform="translate(970.18 480.153)" fill="none" stroke="#aaaed8" stroke-linecap="round" stroke-linejoin="round" stroke-width="0.4"/>
      <line id="선_860" data-name="선 860" y1="0.057" x2="0.467" transform="translate(969.751 480.134)" fill="none" stroke="#aaaed8" stroke-linecap="round" stroke-linejoin="round" stroke-width="0.4"/>
      <line id="선_861" data-name="선 861" y1="0.467" x2="0.057" transform="translate(970.6 479.733)" fill="none" stroke="#aaaed8" stroke-linecap="round" stroke-linejoin="round" stroke-width="0.4"/>
      <line id="선_862" data-name="선 862" y1="0.057" x2="0.467" transform="translate(970.171 479.714)" fill="none" stroke="#aaaed8" stroke-linecap="round" stroke-linejoin="round" stroke-width="0.4"/>
      <line id="선_863" data-name="선 863" x1="0.467" y2="0.057" transform="translate(972.057 478.276)" fill="none" stroke="#aaaed8" stroke-linecap="round" stroke-linejoin="round" stroke-width="0.4"/>
      <line id="선_864" data-name="선 864" x1="0.057" y2="0.467" transform="translate(972.038 477.847)" fill="none" stroke="#aaaed8" stroke-linecap="round" stroke-linejoin="round" stroke-width="0.4"/>
      <line id="선_865" data-name="선 865" x1="0.467" y2="0.057" transform="translate(971.636 478.697)" fill="none" stroke="#aaaed8" stroke-linecap="round" stroke-linejoin="round" stroke-width="0.4"/>
      <line id="선_866" data-name="선 866" x1="0.057" y2="0.467" transform="translate(971.617 478.268)" fill="none" stroke="#aaaed8" stroke-linecap="round" stroke-linejoin="round" stroke-width="0.4"/>
      <line id="선_867" data-name="선 867" y2="4.053" transform="translate(974.111 489.422)" fill="none" stroke="#aaaed8" stroke-linecap="round" stroke-linejoin="round" stroke-width="0.4"/>
      <line id="선_868" data-name="선 868" x2="0.29" y2="0.37" transform="translate(973.807 489.765)" fill="none" stroke="#aaaed8" stroke-linecap="round" stroke-linejoin="round" stroke-width="0.4"/>
      <line id="선_869" data-name="선 869" x1="0.29" y2="0.37" transform="translate(974.125 489.765)" fill="none" stroke="#aaaed8" stroke-linecap="round" stroke-linejoin="round" stroke-width="0.4"/>
      <line id="선_870" data-name="선 870" x2="0.29" y2="0.37" transform="translate(973.807 490.36)" fill="none" stroke="#aaaed8" stroke-linecap="round" stroke-linejoin="round" stroke-width="0.4"/>
      <line id="선_871" data-name="선 871" x1="0.29" y2="0.37" transform="translate(974.125 490.36)" fill="none" stroke="#aaaed8" stroke-linecap="round" stroke-linejoin="round" stroke-width="0.4"/>
      <line id="선_872" data-name="선 872" y1="0.37" x2="0.29" transform="translate(973.807 492.71)" fill="none" stroke="#aaaed8" stroke-linecap="round" stroke-linejoin="round" stroke-width="0.4"/>
      <line id="선_873" data-name="선 873" x1="0.29" y1="0.37" transform="translate(974.125 492.71)" fill="none" stroke="#aaaed8" stroke-linecap="round" stroke-linejoin="round" stroke-width="0.4"/>
      <line id="선_874" data-name="선 874" y1="0.37" x2="0.29" transform="translate(973.807 492.115)" fill="none" stroke="#aaaed8" stroke-linecap="round" stroke-linejoin="round" stroke-width="0.4"/>
      <line id="선_875" data-name="선 875" x1="0.29" y1="0.37" transform="translate(974.125 492.115)" fill="none" stroke="#aaaed8" stroke-linecap="round" stroke-linejoin="round" stroke-width="0.4"/>
      <line id="선_876" data-name="선 876" x2="2.867" y2="2.867" transform="translate(972.678 490.015)" fill="none" stroke="#aaaed8" stroke-linecap="round" stroke-linejoin="round" stroke-width="0.4"/>
      <line id="선_877" data-name="선 877" x2="0.467" y2="0.057" transform="translate(972.706 490.473)" fill="none" stroke="#aaaed8" stroke-linecap="round" stroke-linejoin="round" stroke-width="0.4"/>
      <line id="선_878" data-name="선 878" x2="0.057" y2="0.467" transform="translate(973.135 490.044)" fill="none" stroke="#aaaed8" stroke-linecap="round" stroke-linejoin="round" stroke-width="0.4"/>
      <line id="선_879" data-name="선 879" x2="0.467" y2="0.057" transform="translate(973.127 490.893)" fill="none" stroke="#aaaed8" stroke-linecap="round" stroke-linejoin="round" stroke-width="0.4"/>
      <line id="선_880" data-name="선 880" x2="0.057" y2="0.467" transform="translate(973.556 490.464)" fill="none" stroke="#aaaed8" stroke-linecap="round" stroke-linejoin="round" stroke-width="0.4"/>
      <line id="선_881" data-name="선 881" x1="0.057" y1="0.467" transform="translate(974.993 492.35)" fill="none" stroke="#aaaed8" stroke-linecap="round" stroke-linejoin="round" stroke-width="0.4"/>
      <line id="선_882" data-name="선 882" x1="0.467" y1="0.057" transform="translate(975.012 492.331)" fill="none" stroke="#aaaed8" stroke-linecap="round" stroke-linejoin="round" stroke-width="0.4"/>
      <line id="선_883" data-name="선 883" x1="0.057" y1="0.467" transform="translate(974.573 491.93)" fill="none" stroke="#aaaed8" stroke-linecap="round" stroke-linejoin="round" stroke-width="0.4"/>
      <line id="선_884" data-name="선 884" x1="0.467" y1="0.057" transform="translate(974.592 491.91)" fill="none" stroke="#aaaed8" stroke-linecap="round" stroke-linejoin="round" stroke-width="0.4"/>
      <line id="선_885" data-name="선 885" x2="4.053" transform="translate(972.084 491.448)" fill="none" stroke="#aaaed8" stroke-linecap="round" stroke-linejoin="round" stroke-width="0.4"/>
      <line id="선_886" data-name="선 886" y1="0.29" x2="0.37" transform="translate(972.428 491.462)" fill="none" stroke="#aaaed8" stroke-linecap="round" stroke-linejoin="round" stroke-width="0.4"/>
      <line id="선_887" data-name="선 887" x2="0.37" y2="0.29" transform="translate(972.428 491.145)" fill="none" stroke="#aaaed8" stroke-linecap="round" stroke-linejoin="round" stroke-width="0.4"/>
      <line id="선_888" data-name="선 888" y1="0.29" x2="0.37" transform="translate(973.023 491.462)" fill="none" stroke="#aaaed8" stroke-linecap="round" stroke-linejoin="round" stroke-width="0.4"/>
      <line id="선_889" data-name="선 889" x2="0.37" y2="0.29" transform="translate(973.023 491.145)" fill="none" stroke="#aaaed8" stroke-linecap="round" stroke-linejoin="round" stroke-width="0.4"/>
      <line id="선_890" data-name="선 890" x1="0.37" y1="0.29" transform="translate(975.372 491.462)" fill="none" stroke="#aaaed8" stroke-linecap="round" stroke-linejoin="round" stroke-width="0.4"/>
      <line id="선_891" data-name="선 891" x1="0.37" y2="0.29" transform="translate(975.372 491.145)" fill="none" stroke="#aaaed8" stroke-linecap="round" stroke-linejoin="round" stroke-width="0.4"/>
      <line id="선_892" data-name="선 892" x1="0.37" y1="0.29" transform="translate(974.778 491.462)" fill="none" stroke="#aaaed8" stroke-linecap="round" stroke-linejoin="round" stroke-width="0.4"/>
      <line id="선_893" data-name="선 893" x1="0.37" y2="0.29" transform="translate(974.778 491.145)" fill="none" stroke="#aaaed8" stroke-linecap="round" stroke-linejoin="round" stroke-width="0.4"/>
      <line id="선_894" data-name="선 894" y1="2.867" x2="2.867" transform="translate(972.678 490.014)" fill="none" stroke="#aaaed8" stroke-linecap="round" stroke-linejoin="round" stroke-width="0.4"/>
      <line id="선_895" data-name="선 895" y1="0.467" x2="0.057" transform="translate(973.135 492.386)" fill="none" stroke="#aaaed8" stroke-linecap="round" stroke-linejoin="round" stroke-width="0.4"/>
      <line id="선_896" data-name="선 896" y1="0.057" x2="0.467" transform="translate(972.706 492.367)" fill="none" stroke="#aaaed8" stroke-linecap="round" stroke-linejoin="round" stroke-width="0.4"/>
      <line id="선_897" data-name="선 897" y1="0.467" x2="0.057" transform="translate(973.556 491.966)" fill="none" stroke="#aaaed8" stroke-linecap="round" stroke-linejoin="round" stroke-width="0.4"/>
      <line id="선_898" data-name="선 898" y1="0.057" x2="0.467" transform="translate(973.127 491.947)" fill="none" stroke="#aaaed8" stroke-linecap="round" stroke-linejoin="round" stroke-width="0.4"/>
      <line id="선_899" data-name="선 899" x1="0.467" y2="0.057" transform="translate(975.012 490.509)" fill="none" stroke="#aaaed8" stroke-linecap="round" stroke-linejoin="round" stroke-width="0.4"/>
      <line id="선_900" data-name="선 900" x1="0.057" y2="0.467" transform="translate(974.993 490.08)" fill="none" stroke="#aaaed8" stroke-linecap="round" stroke-linejoin="round" stroke-width="0.4"/>
      <line id="선_901" data-name="선 901" x1="0.467" y2="0.057" transform="translate(974.592 490.93)" fill="none" stroke="#aaaed8" stroke-linecap="round" stroke-linejoin="round" stroke-width="0.4"/>
      <line id="선_902" data-name="선 902" x1="0.057" y2="0.467" transform="translate(974.573 490.5)" fill="none" stroke="#aaaed8" stroke-linecap="round" stroke-linejoin="round" stroke-width="0.4"/>
    </g>
  </g>
</svg>
