<svg xmlns="http://www.w3.org/2000/svg" width="44.941" height="45.636" viewBox="0 0 44.941 45.636">
  <g id="그룹_6" data-name="그룹 6" transform="translate(-702.542 -450.607)">
    <path id="패스_695" data-name="패스 695" d="M278.892,18.224s-5.9-.531-5.9,4.707,5.9,5.237,5.9,5.237h32.685s5.961-.472,5.961-7.473-6.944-6.765-6.944-6.765-1.769-8.885-9.89-8.885a9.831,9.831,0,0,0-9.826,7.178c-4.018-.877-7.987.012-10.217,2.412a7.091,7.091,0,0,0-1.769,3.589" transform="translate(429.745 445.762)" fill="#c0bfbf" stroke="#707070" stroke-width="0.4"/>
    <path id="패스_696" data-name="패스 696" d="M278.892,18.224s-5.9-.531-5.9,4.707,5.9,5.237,5.9,5.237h32.685s5.961-.472,5.961-7.473-6.944-6.765-6.944-6.765-1.769-8.885-9.89-8.885a9.831,9.831,0,0,0-9.826,7.178c-4.018-.877-7.987.012-10.217,2.412A7.091,7.091,0,0,0,278.892,18.224Z" transform="translate(429.745 445.762)" fill="none" stroke="#6f6f6e" stroke-linecap="round" stroke-linejoin="round" stroke-width="0.4"/>
    <path id="패스_697" data-name="패스 697" d="M278.034,16.537a5.87,5.87,0,0,1-.922,1.089c-.441.408-1.113.9-1.151,1.391a.649.649,0,0,0,.075.377.779.779,0,0,0,.729.387c.736-.061,1.2-1.387,1.269-3.245" transform="translate(433.766 461.369)" fill="#7c8196" stroke="#707070" stroke-width="0.4"/>
    <path id="패스_698" data-name="패스 698" d="M278.034,16.537a5.87,5.87,0,0,1-.922,1.089c-.441.408-1.113.9-1.151,1.391a.649.649,0,0,0,.075.377.779.779,0,0,0,.729.387C277.5,19.72,277.965,18.4,278.034,16.537Z" transform="translate(433.766 461.369)" fill="none" stroke="#6f6f6e" stroke-linecap="round" stroke-linejoin="round" stroke-width="0.4"/>
    <path id="패스_699" data-name="패스 699" d="M276.434,19.589a5.872,5.872,0,0,1-.922,1.089c-.441.408-1.113.9-1.151,1.391a.648.648,0,0,0,.075.377.78.78,0,0,0,.731.387c.733-.061,1.2-1.387,1.266-3.245" transform="translate(431.593 465.514)" fill="#7c8196" stroke="#707070" stroke-width="0.4"/>
    <path id="패스_700" data-name="패스 700" d="M276.434,19.589a5.872,5.872,0,0,1-.922,1.089c-.441.408-1.113.9-1.151,1.391a.648.648,0,0,0,.075.377.78.78,0,0,0,.731.387C275.9,22.772,276.365,21.447,276.434,19.589Z" transform="translate(431.593 465.514)" fill="none" stroke="#6f6f6e" stroke-linecap="round" stroke-linejoin="round" stroke-width="0.4"/>
    <path id="패스_701" data-name="패스 701" d="M280.956,16.537a5.865,5.865,0,0,1-.922,1.089c-.441.408-1.113.9-1.151,1.391a.649.649,0,0,0,.075.377.779.779,0,0,0,.729.387c.736-.061,1.2-1.387,1.269-3.245" transform="translate(437.734 461.369)" fill="#7c8196" stroke="#707070" stroke-width="0.4"/>
    <path id="패스_702" data-name="패스 702" d="M280.956,16.537a5.865,5.865,0,0,1-.922,1.089c-.441.408-1.113.9-1.151,1.391a.649.649,0,0,0,.075.377.779.779,0,0,0,.729.387C280.423,19.72,280.887,18.4,280.956,16.537Z" transform="translate(437.734 461.369)" fill="none" stroke="#6f6f6e" stroke-linecap="round" stroke-linejoin="round" stroke-width="0.4"/>
    <path id="패스_703" data-name="패스 703" d="M279.356,19.589a5.869,5.869,0,0,1-.922,1.089c-.441.408-1.113.9-1.151,1.391a.649.649,0,0,0,.075.377.779.779,0,0,0,.729.387c.736-.061,1.2-1.387,1.269-3.245" transform="translate(435.561 465.514)" fill="#7c8196" stroke="#707070" stroke-width="0.4"/>
    <path id="패스_704" data-name="패스 704" d="M279.356,19.589a5.869,5.869,0,0,1-.922,1.089c-.441.408-1.113.9-1.151,1.391a.649.649,0,0,0,.075.377.779.779,0,0,0,.729.387C278.823,22.772,279.287,21.447,279.356,19.589Z" transform="translate(435.561 465.514)" fill="none" stroke="#6f6f6e" stroke-linecap="round" stroke-linejoin="round" stroke-width="0.4"/>
    <path id="패스_705" data-name="패스 705" d="M283.878,16.537a5.867,5.867,0,0,1-.922,1.089c-.441.408-1.113.9-1.151,1.391a.648.648,0,0,0,.075.377.779.779,0,0,0,.729.387c.736-.061,1.2-1.387,1.269-3.245" transform="translate(441.703 461.369)" fill="#7c8196" stroke="#707070" stroke-width="0.4"/>
    <path id="패스_706" data-name="패스 706" d="M283.878,16.537a5.867,5.867,0,0,1-.922,1.089c-.441.408-1.113.9-1.151,1.391a.648.648,0,0,0,.075.377.779.779,0,0,0,.729.387C283.345,19.72,283.809,18.4,283.878,16.537Z" transform="translate(441.703 461.369)" fill="none" stroke="#6f6f6e" stroke-linecap="round" stroke-linejoin="round" stroke-width="0.4"/>
    <path id="패스_707" data-name="패스 707" d="M282.278,19.589a5.865,5.865,0,0,1-.922,1.089c-.441.408-1.113.9-1.151,1.391a.649.649,0,0,0,.075.377.779.779,0,0,0,.729.387c.736-.061,1.2-1.387,1.269-3.245" transform="translate(439.53 465.514)" fill="#7c8196" stroke="#707070" stroke-width="0.4"/>
    <path id="패스_708" data-name="패스 708" d="M282.278,19.589a5.865,5.865,0,0,1-.922,1.089c-.441.408-1.113.9-1.151,1.391a.649.649,0,0,0,.075.377.779.779,0,0,0,.729.387C281.745,22.772,282.209,21.447,282.278,19.589Z" transform="translate(439.53 465.514)" fill="none" stroke="#6f6f6e" stroke-linecap="round" stroke-linejoin="round" stroke-width="0.4"/>
    <path id="패스_709" data-name="패스 709" d="M286.8,16.537a5.872,5.872,0,0,1-.922,1.089c-.441.408-1.113.9-1.151,1.391a.648.648,0,0,0,.075.377.779.779,0,0,0,.729.387c.736-.061,1.2-1.387,1.269-3.245" transform="translate(445.671 461.369)" fill="#7c8196" stroke="#707070" stroke-width="0.4"/>
    <path id="패스_710" data-name="패스 710" d="M286.8,16.537a5.872,5.872,0,0,1-.922,1.089c-.441.408-1.113.9-1.151,1.391a.648.648,0,0,0,.075.377.779.779,0,0,0,.729.387C286.267,19.72,286.731,18.4,286.8,16.537Z" transform="translate(445.671 461.369)" fill="none" stroke="#6f6f6e" stroke-linecap="round" stroke-linejoin="round" stroke-width="0.4"/>
    <path id="패스_711" data-name="패스 711" d="M285.2,19.589a5.866,5.866,0,0,1-.922,1.089c-.441.408-1.113.9-1.151,1.391a.648.648,0,0,0,.075.377.779.779,0,0,0,.729.387c.736-.061,1.2-1.387,1.269-3.245" transform="translate(443.498 465.514)" fill="#7c8196" stroke="#707070" stroke-width="0.4"/>
    <path id="패스_712" data-name="패스 712" d="M285.2,19.589a5.866,5.866,0,0,1-.922,1.089c-.441.408-1.113.9-1.151,1.391a.648.648,0,0,0,.075.377.779.779,0,0,0,.729.387C284.667,22.772,285.131,21.447,285.2,19.589Z" transform="translate(443.498 465.514)" fill="none" stroke="#6f6f6e" stroke-linecap="round" stroke-linejoin="round" stroke-width="0.4"/>
    <path id="패스_713" data-name="패스 713" d="M289.722,16.537a5.871,5.871,0,0,1-.922,1.089c-.441.408-1.113.9-1.151,1.391a.649.649,0,0,0,.075.377.779.779,0,0,0,.729.387c.736-.061,1.2-1.387,1.269-3.245" transform="translate(449.639 461.369)" fill="#7c8196" stroke="#707070" stroke-width="0.4"/>
    <path id="패스_714" data-name="패스 714" d="M289.722,16.537a5.871,5.871,0,0,1-.922,1.089c-.441.408-1.113.9-1.151,1.391a.649.649,0,0,0,.075.377.779.779,0,0,0,.729.387C289.189,19.72,289.653,18.4,289.722,16.537Z" transform="translate(449.639 461.369)" fill="none" stroke="#6f6f6e" stroke-linecap="round" stroke-linejoin="round" stroke-width="0.4"/>
    <path id="패스_715" data-name="패스 715" d="M288.123,19.589a5.961,5.961,0,0,1-.924,1.089c-.439.408-1.111.9-1.151,1.391a.65.65,0,0,0,.076.377.779.779,0,0,0,.729.387c.736-.061,1.2-1.387,1.271-3.245" transform="translate(447.465 465.514)" fill="#7c8196" stroke="#707070" stroke-width="0.4"/>
    <path id="패스_716" data-name="패스 716" d="M288.123,19.589a5.961,5.961,0,0,1-.924,1.089c-.439.408-1.111.9-1.151,1.391a.65.65,0,0,0,.076.377.779.779,0,0,0,.729.387C287.588,22.772,288.052,21.447,288.123,19.589Z" transform="translate(447.465 465.514)" fill="none" stroke="#6f6f6e" stroke-linecap="round" stroke-linejoin="round" stroke-width="0.4"/>
    <path id="패스_717" data-name="패스 717" d="M278.034,22.851a5.869,5.869,0,0,1-.922,1.089c-.441.408-1.113.9-1.151,1.391a.649.649,0,0,0,.075.377.779.779,0,0,0,.729.387c.736-.061,1.2-1.387,1.269-3.245" transform="translate(433.766 469.944)" fill="#7c8196" stroke="#707070" stroke-width="0.4"/>
    <path id="패스_718" data-name="패스 718" d="M278.034,22.851a5.869,5.869,0,0,1-.922,1.089c-.441.408-1.113.9-1.151,1.391a.649.649,0,0,0,.075.377.779.779,0,0,0,.729.387C277.5,26.034,277.965,24.709,278.034,22.851Z" transform="translate(433.766 469.944)" fill="none" stroke="#6f6f6e" stroke-linecap="round" stroke-linejoin="round" stroke-width="0.4"/>
    <path id="패스_719" data-name="패스 719" d="M283.878,22.851a5.867,5.867,0,0,1-.922,1.089c-.441.408-1.113.9-1.151,1.391a.648.648,0,0,0,.075.377.779.779,0,0,0,.729.387c.736-.061,1.2-1.387,1.269-3.245" transform="translate(441.703 469.944)" fill="#7c8196" stroke="#707070" stroke-width="0.4"/>
    <path id="패스_720" data-name="패스 720" d="M283.878,22.851a5.867,5.867,0,0,1-.922,1.089c-.441.408-1.113.9-1.151,1.391a.648.648,0,0,0,.075.377.779.779,0,0,0,.729.387C283.345,26.034,283.809,24.709,283.878,22.851Z" transform="translate(441.703 469.944)" fill="none" stroke="#6f6f6e" stroke-linecap="round" stroke-linejoin="round" stroke-width="0.4"/>
  </g>
</svg>
