<svg xmlns="http://www.w3.org/2000/svg" xmlns:xlink="http://www.w3.org/1999/xlink" width="105" height="116" viewBox="0 0 105 116">
  <defs>
    <filter id="사각형_8758" x="0" y="0" width="105" height="116" filterUnits="userSpaceOnUse">
      <feOffset dx="3" dy="3" input="SourceAlpha"/>
      <feGaussianBlur stdDeviation="7.5" result="blur"/>
      <feFlood flood-opacity="0.102"/>
      <feComposite operator="in" in2="blur"/>
      <feComposite in="SourceGraphic"/>
    </filter>
  </defs>
  <g id="그룹_264" data-name="그룹 264" transform="translate(-5139.5 -1423.5)">
    <g id="그룹_203" data-name="그룹 203" transform="translate(4166 35)" opacity="0.85">
      <g transform="matrix(1, 0, 0, 1, 973.5, 1388.5)" filter="url(#사각형_8758)">
        <rect id="사각형_8758-2" data-name="사각형 8758" width="60" height="71" rx="8" transform="translate(19.5 19.5)" fill="#fff"/>
      </g>
      <path id="다각형_3" data-name="다각형 3" d="M5,0l5,9H0Z" transform="translate(1027 1488) rotate(180)" fill="#fff"/>
    </g>
    <g id="그룹_12" data-name="그룹 12" transform="translate(4832.461 1016.096)">
      <path id="패스_677" data-name="패스 677" d="M121.9,18.268s-5.9-.531-5.9,4.707,5.9,5.237,5.9,5.237h32.685s5.961-.472,5.961-7.473-6.944-6.765-6.944-6.765-1.769-8.885-9.89-8.885a9.831,9.831,0,0,0-9.826,7.178c-4.018-.877-7.987.012-10.217,2.412a7.091,7.091,0,0,0-1.769,3.589" transform="translate(216.539 445.822)" fill="#f4f3f4" stroke="#707070" stroke-width="0.4"/>
      <path id="패스_678" data-name="패스 678" d="M121.9,18.268s-5.9-.531-5.9,4.707,5.9,5.237,5.9,5.237h32.685s5.961-.472,5.961-7.473-6.944-6.765-6.944-6.765-1.769-8.885-9.89-8.885a9.831,9.831,0,0,0-9.826,7.178c-4.018-.877-7.987.012-10.217,2.412a7.091,7.091,0,0,0-1.769,3.589Z" transform="translate(216.539 445.822)" fill="none" stroke="#6f6f6e" stroke-linecap="round" stroke-linejoin="round" stroke-width="0.4"/>
      <path id="패스_679" data-name="패스 679" d="M142.989,18.333c-.755,1.3-2.452,2.075-3.3,1.7a7.51,7.51,0,0,0,.071-1.061c0-7-6.956-6.768-6.956-6.768a13.736,13.736,0,0,0-1.462-3.679,5.493,5.493,0,0,1,8.289-.5A4.225,4.225,0,0,1,140,13.26a3.482,3.482,0,0,1,2.452.872,3.533,3.533,0,0,1,.542,4.2" transform="translate(237.367 447.592)" fill="#dedfdf" stroke="#707070" stroke-width="0.4"/>
      <path id="패스_680" data-name="패스 680" d="M142.989,18.333c-.755,1.3-2.452,2.075-3.3,1.7a7.51,7.51,0,0,0,.071-1.061c0-7-6.956-6.768-6.956-6.768a13.736,13.736,0,0,0-1.462-3.679,5.493,5.493,0,0,1,8.289-.5A4.225,4.225,0,0,1,140,13.26a3.482,3.482,0,0,1,2.452.872,3.533,3.533,0,0,1,.541,4.2Z" transform="translate(237.367 447.592)" fill="none" stroke="#6f6f6e" stroke-linecap="round" stroke-linejoin="round" stroke-width="0.4"/>
    </g>
  </g>
</svg>
