<svg xmlns="http://www.w3.org/2000/svg" xmlns:xlink="http://www.w3.org/1999/xlink" width="105" height="116" viewBox="0 0 105 116">
  <defs>
    <filter id="사각형_8758" x="0" y="0" width="105" height="116" filterUnits="userSpaceOnUse">
      <feOffset dx="3" dy="3" input="SourceAlpha"/>
      <feGaussianBlur stdDeviation="7.5" result="blur"/>
      <feFlood flood-opacity="0.102"/>
      <feComposite operator="in" in2="blur"/>
      <feComposite in="SourceGraphic"/>
    </filter>
  </defs>
  <g id="그룹_265" data-name="그룹 265" transform="translate(-5213.5 -1423.5)">
    <g id="그룹_215" data-name="그룹 215" opacity="0.85">
      <g transform="matrix(1, 0, 0, 1, 5213.5, 1423.5)" filter="url(#사각형_8758)">
        <rect id="사각형_8758-2" data-name="사각형 8758" width="60" height="71" rx="8" transform="translate(19.5 19.5)" fill="#fff"/>
      </g>
      <path id="다각형_3" data-name="다각형 3" d="M5,0l5,9H0Z" transform="translate(5267 1523) rotate(180)" fill="#fff"/>
    </g>
    <g id="그룹_13" data-name="그룹 13" transform="translate(4969.357 1019.671)">
      <path id="패스_805" data-name="패스 805" d="M102.467,10.194a5.348,5.348,0,1,1-5.485-5.207,5.348,5.348,0,0,1,5.485,5.207" transform="translate(183.635 445.681)" fill="#f7cc15" stroke="#707070" stroke-width="0.4"/>
      <path id="패스_806" data-name="패스 806" d="M102.467,10.194a5.348,5.348,0,1,1-5.485-5.207,5.348,5.348,0,0,1,5.485,5.207Z" transform="translate(183.635 445.681)" fill="none" stroke="#6f6f6e" stroke-linecap="round" stroke-linejoin="round" stroke-width="0.4"/>
      <path id="패스_807" data-name="패스 807" d="M94.328,4.229c.021.837-.094,1.519-.259,1.523s-.314-.672-.337-1.507.094-1.519.259-1.523.316.67.337,1.507" transform="translate(186.289 442.607)" fill="#fff" stroke="#707070" stroke-width="0.4"/>
      <path id="패스_808" data-name="패스 808" d="M94.328,4.229c.021.837-.094,1.519-.259,1.523s-.314-.672-.337-1.507.094-1.519.259-1.523S94.307,3.392,94.328,4.229Z" transform="translate(186.289 442.607)" fill="#f7cc15" stroke="#6f6f6e" stroke-linecap="round" stroke-linejoin="round" stroke-width="0.4"/>
      <path id="패스_809" data-name="패스 809" d="M91.333,5.632c.79.4,1.365.83,1.288.964s-.783-.078-1.573-.476-1.365-.83-1.288-.964.783.078,1.573.476" transform="translate(180.89 445.857)" fill="#fff" stroke="#707070" stroke-width="0.4"/>
      <path id="패스_810" data-name="패스 810" d="M91.333,5.632c.79.4,1.365.83,1.288.964s-.783-.078-1.573-.476-1.365-.83-1.288-.964S90.543,5.233,91.333,5.632Z" transform="translate(180.89 445.857)" fill="#f7cc15" stroke="#6f6f6e" stroke-linecap="round" stroke-linejoin="round" stroke-width="0.4"/>
      <path id="패스_811" data-name="패스 811" d="M91.113,9.488c.769-.439,1.46-.689,1.547-.559s-.469.592-1.236,1.03-1.462.689-1.547.559.467-.592,1.236-1.03" transform="translate(181.046 450.99)" fill="#fff" stroke="#707070" stroke-width="0.4"/>
      <path id="패스_812" data-name="패스 812" d="M91.113,9.488c.769-.439,1.46-.689,1.547-.559s-.469.592-1.236,1.03-1.462.689-1.547.559S90.344,9.926,91.113,9.488Z" transform="translate(181.046 450.99)" fill="#f7cc15" stroke="#6f6f6e" stroke-linecap="round" stroke-linejoin="round" stroke-width="0.4"/>
      <path id="패스_813" data-name="패스 813" d="M98.106,5.494c.769-.439,1.46-.689,1.547-.559s-.469.592-1.236,1.03-1.462.689-1.547.559.467-.592,1.236-1.03" transform="translate(190.543 445.566)" fill="#fff" stroke="#707070" stroke-width="0.4"/>
      <path id="패스_814" data-name="패스 814" d="M98.106,5.494c.769-.439,1.46-.689,1.547-.559s-.469.592-1.236,1.03-1.462.689-1.547.559S97.337,5.932,98.106,5.494Z" transform="translate(190.543 445.566)" fill="#f7cc15" stroke="#6f6f6e" stroke-linecap="round" stroke-linejoin="round" stroke-width="0.4"/>
      <path id="패스_815" data-name="패스 815" d="M96.515,18.224s-5.9-.531-5.9,4.707,5.9,5.237,5.9,5.237H129.2s5.961-.472,5.961-7.473-6.944-6.765-6.944-6.765-1.769-8.885-9.89-8.885a9.831,9.831,0,0,0-9.826,7.178c-4.018-.877-7.987.012-10.217,2.412a7.091,7.091,0,0,0-1.769,3.589" transform="translate(182.067 445.762)" fill="#f4f3f4" stroke="#707070" stroke-width="0.4"/>
      <path id="패스_816" data-name="패스 816" d="M96.515,18.224s-5.9-.531-5.9,4.707,5.9,5.237,5.9,5.237H129.2s5.961-.472,5.961-7.473-6.944-6.765-6.944-6.765-1.769-8.885-9.89-8.885a9.831,9.831,0,0,0-9.826,7.178c-4.018-.877-7.987.012-10.217,2.412A7.091,7.091,0,0,0,96.515,18.224Z" transform="translate(182.067 445.762)" fill="none" stroke="#6f6f6e" stroke-linecap="round" stroke-linejoin="round" stroke-width="0.4"/>
    </g>
  </g>
</svg>
