<svg xmlns="http://www.w3.org/2000/svg" xmlns:xlink="http://www.w3.org/1999/xlink" width="105" height="116" viewBox="0 0 105 116">
  <defs>
    <filter id="사각형_8758" x="0" y="0" width="105" height="116" filterUnits="userSpaceOnUse">
      <feOffset dx="3" dy="3" input="SourceAlpha"/>
      <feGaussianBlur stdDeviation="7.5" result="blur"/>
      <feFlood flood-opacity="0.102"/>
      <feComposite operator="in" in2="blur"/>
      <feComposite in="SourceGraphic"/>
    </filter>
  </defs>
  <g id="그룹_266" data-name="그룹 266" transform="translate(-5287.5 -1423.5)">
    <g id="그룹_205" data-name="그룹 205" transform="translate(4314 35)" opacity="0.85">
      <g transform="matrix(1, 0, 0, 1, 973.5, 1388.5)" filter="url(#사각형_8758)">
        <rect id="사각형_8758-2" data-name="사각형 8758" width="60" height="71" rx="8" transform="translate(19.5 19.5)" fill="#fff"/>
      </g>
      <path id="다각형_3" data-name="다각형 3" d="M5,0l5,9H0Z" transform="translate(1027 1488) rotate(180)" fill="#fff"/>
    </g>
    <g id="그룹_8" data-name="그룹 8" transform="translate(4735.813 1009.2)">
      <path id="패스_721" data-name="패스 721" d="M226.5,18.224s-5.9-.531-5.9,4.707,5.9,5.237,5.9,5.237h32.68s5.961-.472,5.961-7.473S258.2,13.93,258.2,13.93s-1.769-8.885-9.89-8.885a9.831,9.831,0,0,0-9.826,7.178c-4.018-.877-7.987.012-10.217,2.412a7.091,7.091,0,0,0-1.769,3.589" transform="translate(358.587 445.762)" fill="#dedfdf" stroke="#707070" stroke-width="0.4"/>
      <path id="패스_722" data-name="패스 722" d="M226.5,18.224s-5.9-.531-5.9,4.707,5.9,5.237,5.9,5.237h32.68s5.961-.472,5.961-7.473S258.2,13.93,258.2,13.93s-1.769-8.885-9.89-8.885a9.831,9.831,0,0,0-9.826,7.178c-4.018-.877-7.987.012-10.217,2.412a7.091,7.091,0,0,0-1.767,3.589Z" transform="translate(358.587 445.762)" fill="none" stroke="#6f6f6e" stroke-linecap="round" stroke-linejoin="round" stroke-width="0.4"/>
      <path id="패스_723" data-name="패스 723" d="M233.162,16.537a5.867,5.867,0,0,1-.922,1.089c-.441.408-1.113.9-1.151,1.391a.649.649,0,0,0,.075.377.779.779,0,0,0,.729.387c.736-.061,1.2-1.387,1.269-3.245" transform="translate(372.827 461.369)" fill="#c0bfbf" stroke="#707070" stroke-width="0.4"/>
      <path id="패스_724" data-name="패스 724" d="M233.162,16.537a5.867,5.867,0,0,1-.922,1.089c-.441.408-1.113.9-1.151,1.391a.649.649,0,0,0,.075.377.779.779,0,0,0,.729.387C232.629,19.72,233.093,18.4,233.162,16.537Z" transform="translate(372.827 461.369)" fill="none" stroke="#6f6f6e" stroke-linecap="round" stroke-linejoin="round" stroke-width="0.4"/>
      <path id="패스_725" data-name="패스 725" d="M236.084,16.537a5.869,5.869,0,0,1-.922,1.089c-.441.408-1.113.9-1.151,1.391a.649.649,0,0,0,.075.377.779.779,0,0,0,.729.387c.736-.061,1.2-1.387,1.269-3.245" transform="translate(376.796 461.369)" fill="#c0bfbf" stroke="#707070" stroke-width="0.4"/>
      <path id="패스_726" data-name="패스 726" d="M236.084,16.537a5.869,5.869,0,0,1-.922,1.089c-.441.408-1.113.9-1.151,1.391a.649.649,0,0,0,.075.377.779.779,0,0,0,.729.387C235.551,19.72,236.015,18.4,236.084,16.537Z" transform="translate(376.796 461.369)" fill="none" stroke="#6f6f6e" stroke-linecap="round" stroke-linejoin="round" stroke-width="0.4"/>
      <path id="패스_727" data-name="패스 727" d="M234.483,19.589a5.868,5.868,0,0,1-.922,1.089c-.441.408-1.113.9-1.151,1.391a.649.649,0,0,0,.075.377.779.779,0,0,0,.729.387c.736-.061,1.2-1.387,1.269-3.245" transform="translate(374.621 465.514)" fill="#c0bfbf" stroke="#707070" stroke-width="0.4"/>
      <path id="패스_728" data-name="패스 728" d="M234.483,19.589a5.868,5.868,0,0,1-.922,1.089c-.441.408-1.113.9-1.151,1.391a.649.649,0,0,0,.075.377.779.779,0,0,0,.729.387C233.95,22.772,234.414,21.447,234.483,19.589Z" transform="translate(374.621 465.514)" fill="none" stroke="#6f6f6e" stroke-linecap="round" stroke-linejoin="round" stroke-width="0.4"/>
      <path id="패스_729" data-name="패스 729" d="M227.277,16.537a5.869,5.869,0,0,1-.922,1.089c-.441.408-1.113.9-1.151,1.391a.65.65,0,0,0,.076.377.779.779,0,0,0,.729.387c.736-.061,1.2-1.387,1.269-3.245" transform="translate(364.835 461.369)" fill="#c0bfbf" stroke="#707070" stroke-width="0.4"/>
      <path id="패스_730" data-name="패스 730" d="M227.277,16.537a5.869,5.869,0,0,1-.922,1.089c-.441.408-1.113.9-1.151,1.391a.65.65,0,0,0,.076.377.779.779,0,0,0,.729.387C226.744,19.72,227.208,18.4,227.277,16.537Z" transform="translate(364.835 461.369)" fill="none" stroke="#6f6f6e" stroke-linecap="round" stroke-linejoin="round" stroke-width="0.4"/>
      <path id="패스_731" data-name="패스 731" d="M230.2,16.537a5.87,5.87,0,0,1-.922,1.089c-.441.408-1.113.9-1.151,1.391a.649.649,0,0,0,.075.377.779.779,0,0,0,.729.387c.736-.061,1.2-1.387,1.269-3.245" transform="translate(368.803 461.369)" fill="#c0bfbf" stroke="#707070" stroke-width="0.4"/>
      <path id="패스_732" data-name="패스 732" d="M230.2,16.537a5.87,5.87,0,0,1-.922,1.089c-.441.408-1.113.9-1.151,1.391a.649.649,0,0,0,.075.377.779.779,0,0,0,.729.387C229.666,19.72,230.13,18.4,230.2,16.537Z" transform="translate(368.803 461.369)" fill="none" stroke="#6f6f6e" stroke-linecap="round" stroke-linejoin="round" stroke-width="0.4"/>
      <path id="패스_733" data-name="패스 733" d="M228.6,19.589a5.87,5.87,0,0,1-.922,1.089c-.441.408-1.113.9-1.151,1.391a.649.649,0,0,0,.075.377.779.779,0,0,0,.729.387c.736-.061,1.2-1.387,1.269-3.245" transform="translate(366.631 465.514)" fill="#c0bfbf" stroke="#707070" stroke-width="0.4"/>
      <path id="패스_734" data-name="패스 734" d="M228.6,19.589a5.87,5.87,0,0,1-.922,1.089c-.441.408-1.113.9-1.151,1.391a.649.649,0,0,0,.075.377.779.779,0,0,0,.729.387C228.066,22.772,228.53,21.447,228.6,19.589Z" transform="translate(366.631 465.514)" fill="none" stroke="#6f6f6e" stroke-linecap="round" stroke-linejoin="round" stroke-width="0.4"/>
    </g>
  </g>
</svg>
