<svg xmlns="http://www.w3.org/2000/svg" xmlns:xlink="http://www.w3.org/1999/xlink" width="105" height="116" viewBox="0 0 105 116">
  <defs>
    <filter id="사각형_8758" x="0" y="0" width="105" height="116" filterUnits="userSpaceOnUse">
      <feOffset dx="3" dy="3" input="SourceAlpha"/>
      <feGaussianBlur stdDeviation="7.5" result="blur"/>
      <feFlood flood-opacity="0.102"/>
      <feComposite operator="in" in2="blur"/>
      <feComposite in="SourceGraphic"/>
    </filter>
  </defs>
  <g id="그룹_267" data-name="그룹 267" transform="translate(-5360.5 -1423.5)">
    <g id="그룹_206" data-name="그룹 206" transform="translate(4387 35)" opacity="0.85">
      <g transform="matrix(1, 0, 0, 1, 973.5, 1388.5)" filter="url(#사각형_8758)">
        <rect id="사각형_8758-2" data-name="사각형 8758" width="60" height="71" rx="8" transform="translate(19.5 19.5)" fill="#fff"/>
      </g>
      <path id="다각형_3" data-name="다각형 3" d="M5,0l5,9H0Z" transform="translate(1027 1488) rotate(180)" fill="#fff"/>
    </g>
    <g id="그룹_7" data-name="그룹 7" transform="translate(4748.107 1010.2)">
      <path id="패스_693" data-name="패스 693" d="M252.241,18.224s-5.9-.531-5.9,4.707,5.9,5.237,5.9,5.237h32.685s5.961-.472,5.961-7.473-6.944-6.765-6.944-6.765-1.769-8.885-9.89-8.885a9.831,9.831,0,0,0-9.826,7.178c-4.018-.877-7.987.012-10.217,2.412a7.091,7.091,0,0,0-1.769,3.589" transform="translate(393.552 445.762)" fill="#dedfdf" stroke="#707070" stroke-width="0.4"/>
      <path id="패스_694" data-name="패스 694" d="M252.241,18.224s-5.9-.531-5.9,4.707,5.9,5.237,5.9,5.237h32.685s5.961-.472,5.961-7.473-6.944-6.765-6.944-6.765-1.769-8.885-9.89-8.885a9.831,9.831,0,0,0-9.826,7.178c-4.018-.877-7.987.012-10.217,2.412a7.091,7.091,0,0,0-1.769,3.589Z" transform="translate(393.552 445.762)" fill="none" stroke="#6f6f6e" stroke-linecap="round" stroke-linejoin="round" stroke-width="0.4"/>
      <line id="선_701" data-name="선 701" x1="5.497" y2="9.564" transform="translate(651.747 477.906)" fill="#fff" stroke="#707070" stroke-width="0.4"/>
      <line id="선_702" data-name="선 702" x1="5.497" y2="9.564" transform="translate(651.747 477.906)" fill="none" stroke="#6f6f6e" stroke-linecap="round" stroke-linejoin="round" stroke-width="0.4"/>
      <line id="선_703" data-name="선 703" x1="2.658" y2="4.624" transform="translate(650.443 477.906)" fill="#fff" stroke="#707070" stroke-width="0.4"/>
      <line id="선_704" data-name="선 704" x1="2.658" y2="4.624" transform="translate(650.443 477.906)" fill="none" stroke="#6f6f6e" stroke-linecap="round" stroke-linejoin="round" stroke-width="0.4"/>
      <line id="선_705" data-name="선 705" x1="5.497" y2="9.564" transform="translate(660.071 477.906)" fill="#fff" stroke="#707070" stroke-width="0.4"/>
      <line id="선_706" data-name="선 706" x1="5.497" y2="9.564" transform="translate(660.071 477.906)" fill="none" stroke="#6f6f6e" stroke-linecap="round" stroke-linejoin="round" stroke-width="0.4"/>
      <line id="선_707" data-name="선 707" x1="2.658" y2="4.624" transform="translate(658.767 477.906)" fill="#fff" stroke="#707070" stroke-width="0.4"/>
      <line id="선_708" data-name="선 708" x1="2.658" y2="4.624" transform="translate(658.767 477.906)" fill="none" stroke="#6f6f6e" stroke-linecap="round" stroke-linejoin="round" stroke-width="0.4"/>
      <line id="선_709" data-name="선 709" x1="5.497" y2="9.564" transform="translate(668.396 477.906)" fill="#fff" stroke="#707070" stroke-width="0.4"/>
      <line id="선_710" data-name="선 710" x1="5.497" y2="9.564" transform="translate(668.396 477.906)" fill="none" stroke="#6f6f6e" stroke-linecap="round" stroke-linejoin="round" stroke-width="0.4"/>
      <line id="선_711" data-name="선 711" x1="2.658" y2="4.624" transform="translate(667.091 477.906)" fill="#fff" stroke="#707070" stroke-width="0.4"/>
      <line id="선_712" data-name="선 712" x1="2.658" y2="4.624" transform="translate(667.091 477.906)" fill="none" stroke="#6f6f6e" stroke-linecap="round" stroke-linejoin="round" stroke-width="0.4"/>
    </g>
  </g>
</svg>
