<svg xmlns="http://www.w3.org/2000/svg" width="44.941" height="35.094" viewBox="0 0 44.941 35.094">
  <g id="그룹_3" data-name="그룹 3" transform="translate(-878.956 -450.607)">
    <path id="패스_743" data-name="패스 743" d="M353.705,18.224s-5.9-.531-5.9,4.707,5.9,5.237,5.9,5.237H386.39s5.961-.472,5.961-7.473-6.944-6.765-6.944-6.765-1.769-8.885-9.89-8.885a9.831,9.831,0,0,0-9.826,7.178c-4.018-.877-7.987.012-10.217,2.412a7.092,7.092,0,0,0-1.769,3.589" transform="translate(531.346 445.762)" fill="#f4f3f4" stroke="#707070" stroke-width="0.4"/>
    <path id="패스_744" data-name="패스 744" d="M353.705,18.224s-5.9-.531-5.9,4.707,5.9,5.237,5.9,5.237H386.39s5.961-.472,5.961-7.473-6.944-6.765-6.944-6.765-1.769-8.885-9.89-8.885a9.831,9.831,0,0,0-9.826,7.178c-4.018-.877-7.987.012-10.217,2.412A7.092,7.092,0,0,0,353.705,18.224Z" transform="translate(531.346 445.762)" fill="none" stroke="#6f6f6e" stroke-linecap="round" stroke-linejoin="round" stroke-width="0.4"/>
    <path id="패스_745" data-name="패스 745" d="M353.948,18.287a.769.769,0,1,1-.769-.769.769.769,0,0,1,.769.769" transform="translate(537.594 462.701)" fill="#c0bfbf" stroke="#707070" stroke-width="0.4"/>
    <path id="패스_746" data-name="패스 746" d="M353.948,18.287a.769.769,0,1,1-.769-.769A.769.769,0,0,1,353.948,18.287Z" transform="translate(537.594 462.701)" fill="none" stroke="#6f6f6e" stroke-linecap="round" stroke-linejoin="round" stroke-width="0.4"/>
    <path id="패스_747" data-name="패스 747" d="M357.152,17.145a.769.769,0,1,1-.769-.769.769.769,0,0,1,.769.769" transform="translate(541.945 461.15)" fill="#c0bfbf" stroke="#707070" stroke-width="0.4"/>
    <path id="패스_748" data-name="패스 748" d="M357.152,17.145a.769.769,0,1,1-.769-.769A.769.769,0,0,1,357.152,17.145Z" transform="translate(541.945 461.15)" fill="none" stroke="#6f6f6e" stroke-linecap="round" stroke-linejoin="round" stroke-width="0.4"/>
    <path id="패스_749" data-name="패스 749" d="M356.181,19.875a.769.769,0,1,1-.769-.769.769.769,0,0,1,.769.769" transform="translate(540.627 464.858)" fill="#c0bfbf" stroke="#707070" stroke-width="0.4"/>
    <path id="패스_750" data-name="패스 750" d="M356.181,19.875a.769.769,0,1,1-.769-.769A.769.769,0,0,1,356.181,19.875Z" transform="translate(540.627 464.858)" fill="none" stroke="#6f6f6e" stroke-linecap="round" stroke-linejoin="round" stroke-width="0.4"/>
    <path id="패스_751" data-name="패스 751" d="M359.779,18.287a.769.769,0,1,1-.769-.769.769.769,0,0,1,.769.769" transform="translate(545.513 462.701)" fill="#c0bfbf" stroke="#707070" stroke-width="0.4"/>
    <path id="패스_752" data-name="패스 752" d="M359.779,18.287a.769.769,0,1,1-.769-.769A.769.769,0,0,1,359.779,18.287Z" transform="translate(545.513 462.701)" fill="none" stroke="#6f6f6e" stroke-linecap="round" stroke-linejoin="round" stroke-width="0.4"/>
    <path id="패스_753" data-name="패스 753" d="M362.983,17.145a.769.769,0,1,1-.769-.769.769.769,0,0,1,.769.769" transform="translate(549.864 461.15)" fill="#c0bfbf" stroke="#707070" stroke-width="0.4"/>
    <path id="패스_754" data-name="패스 754" d="M362.983,17.145a.769.769,0,1,1-.769-.769A.769.769,0,0,1,362.983,17.145Z" transform="translate(549.864 461.15)" fill="none" stroke="#6f6f6e" stroke-linecap="round" stroke-linejoin="round" stroke-width="0.4"/>
    <path id="패스_773" data-name="패스 773" d="M362.013,19.875a.769.769,0,1,1-.769-.769.769.769,0,0,1,.769.769" transform="translate(548.545 464.858)" fill="#c0bfbf" stroke="#707070" stroke-width="0.4"/>
    <path id="패스_774" data-name="패스 774" d="M362.013,19.875a.769.769,0,1,1-.769-.769A.769.769,0,0,1,362.013,19.875Z" transform="translate(548.545 464.858)" fill="none" stroke="#6f6f6e" stroke-linecap="round" stroke-linejoin="round" stroke-width="0.4"/>
  </g>
</svg>
