<svg xmlns="http://www.w3.org/2000/svg" xmlns:xlink="http://www.w3.org/1999/xlink" width="105" height="116" viewBox="0 0 105 116">
  <defs>
    <filter id="사각형_8758" x="0" y="0" width="105" height="116" filterUnits="userSpaceOnUse">
      <feOffset dx="3" dy="3" input="SourceAlpha"/>
      <feGaussianBlur stdDeviation="7.5" result="blur"/>
      <feFlood flood-opacity="0.102"/>
      <feComposite operator="in" in2="blur"/>
      <feComposite in="SourceGraphic"/>
    </filter>
  </defs>
  <g id="그룹_269" data-name="그룹 269" transform="translate(-5508.5 -1423.5)">
    <g id="그룹_208" data-name="그룹 208" transform="translate(4535 35)" opacity="0.85">
      <g transform="matrix(1, 0, 0, 1, 973.5, 1388.5)" filter="url(#사각형_8758)">
        <rect id="사각형_8758-2" data-name="사각형 8758" width="60" height="71" rx="8" transform="translate(19.5 19.5)" fill="#fff"/>
      </g>
      <path id="다각형_3" data-name="다각형 3" d="M5,0l5,9H0Z" transform="translate(1027 1488) rotate(180)" fill="#fff"/>
    </g>
    <g id="그룹_1" data-name="그룹 1" transform="translate(4533.296 1011.2)">
      <path id="패스_739" data-name="패스 739" d="M406.1,18.224s-5.9-.531-5.9,4.707,5.9,5.237,5.9,5.237h32.685s5.961-.472,5.961-7.473S437.8,13.93,437.8,13.93s-1.769-8.885-9.89-8.885a9.831,9.831,0,0,0-9.826,7.178c-4.018-.877-7.987.012-10.217,2.412a7.092,7.092,0,0,0-1.768,3.589" transform="translate(602.504 445.762)" fill="#7c8196" stroke="#707070" stroke-width="0.4"/>
      <path id="패스_740" data-name="패스 740" d="M406.1,18.224s-5.9-.531-5.9,4.707,5.9,5.237,5.9,5.237h32.685s5.961-.472,5.961-7.473S437.8,13.93,437.8,13.93s-1.769-8.885-9.89-8.885a9.831,9.831,0,0,0-9.826,7.178c-4.018-.877-7.987.012-10.217,2.412a7.092,7.092,0,0,0-1.767,3.589Z" transform="translate(602.504 445.762)" fill="none" stroke="#6f6f6e" stroke-linecap="round" stroke-linejoin="round" stroke-width="0.4"/>
      <path id="패스_741" data-name="패스 741" d="M418.447,10.269,407.225,22.734l6.532-3.049L410,29.907l10.526-14.122L415.3,17.506q1.57-3.618,3.143-7.237" transform="translate(612.035 452.857)" fill="#f7cc15" stroke="#707070" stroke-width="0.4"/>
      <path id="패스_742" data-name="패스 742" d="M418.447,10.269,407.225,22.734l6.532-3.049L410,29.907l10.526-14.122L415.3,17.506Z" transform="translate(612.035 452.857)" fill="none" stroke="#6f6f6e" stroke-linecap="round" stroke-linejoin="round" stroke-width="0.4"/>
      <path id="패스_775" data-name="패스 775" d="M414.324,18.733a.769.769,0,1,1,.769.769.769.769,0,0,1-.769-.769" transform="translate(621.675 463.307)" fill="#c0bfbf" stroke="#707070" stroke-width="0.4"/>
      <circle id="타원_4" data-name="타원 4" cx="0.769" cy="0.769" r="0.769" transform="translate(1035.995 481.276) rotate(-0.286)" fill="none" stroke="#6f6f6e" stroke-linecap="round" stroke-linejoin="round" stroke-width="0.4"/>
      <path id="패스_776" data-name="패스 776" d="M411.12,19.875a.769.769,0,1,1,.769.769.769.769,0,0,1-.769-.769" transform="translate(617.324 464.858)" fill="#c0bfbf" stroke="#707070" stroke-width="0.4"/>
      <circle id="타원_5" data-name="타원 5" cx="0.769" cy="0.769" r="0.769" transform="translate(1028.439 483.969) rotate(-0.286)" fill="none" stroke="#6f6f6e" stroke-linecap="round" stroke-linejoin="round" stroke-width="0.4"/>
      <path id="패스_777" data-name="패스 777" d="M412.091,17.145a.769.769,0,1,1,.769.769.769.769,0,0,1-.769-.769" transform="translate(618.643 461.15)" fill="#c0bfbf" stroke="#707070" stroke-width="0.4"/>
      <circle id="타원_6" data-name="타원 6" cx="0.769" cy="0.769" r="0.769" transform="translate(1030.729 477.53) rotate(-0.286)" fill="none" stroke="#6f6f6e" stroke-linecap="round" stroke-linejoin="round" stroke-width="0.4"/>
      <path id="패스_778" data-name="패스 778" d="M406.549,18.733a.769.769,0,1,1,.769.769.769.769,0,0,1-.769-.769" transform="translate(611.117 463.307)" fill="#c0bfbf" stroke="#707070" stroke-width="0.4"/>
      <circle id="타원_7" data-name="타원 7" cx="0.769" cy="0.769" r="0.769" transform="translate(1017.661 481.276) rotate(-0.286)" fill="none" stroke="#6f6f6e" stroke-linecap="round" stroke-linejoin="round" stroke-width="0.4"/>
      <path id="패스_779" data-name="패스 779" d="M403.345,19.875a.769.769,0,1,1,.769.769.769.769,0,0,1-.769-.769" transform="translate(606.765 464.858)" fill="#c0bfbf" stroke="#707070" stroke-width="0.4"/>
      <circle id="타원_8" data-name="타원 8" cx="0.769" cy="0.769" r="0.769" transform="translate(1010.105 483.969) rotate(-0.286)" fill="none" stroke="#6f6f6e" stroke-linecap="round" stroke-linejoin="round" stroke-width="0.4"/>
      <path id="패스_780" data-name="패스 780" d="M404.316,17.145a.769.769,0,1,1,.769.769.769.769,0,0,1-.769-.769" transform="translate(608.084 461.15)" fill="#c0bfbf" stroke="#707070" stroke-width="0.4"/>
      <circle id="타원_9" data-name="타원 9" cx="0.769" cy="0.769" r="0.769" transform="translate(1012.395 477.53) rotate(-0.286)" fill="none" stroke="#6f6f6e" stroke-linecap="round" stroke-linejoin="round" stroke-width="0.4"/>
    </g>
  </g>
</svg>
