<svg xmlns="http://www.w3.org/2000/svg" width="29.582" height="36.707" viewBox="0 0 29.582 36.707">
  <g id="그룹_14" data-name="그룹 14" transform="translate(-219.811 -439.798)">
    <path id="패스_675" data-name="패스 675" d="M68.393,25.408c2.21-2.339,4.016-4.407,5.4-6.046,2.832-3.36,3.756-4.773,4.523-6.355A21.665,21.665,0,0,0,79.83,8.826l8.39,2.068c.476,1.4,1.2,3.405,2.21,5.777a26.731,26.731,0,0,0,1.849,3.846A17.375,17.375,0,0,0,96.9,25.408Z" transform="translate(151.882 450.897)" fill="#764415" stroke="#707070" stroke-width="0.4"/>
    <path id="패스_676" data-name="패스 676" d="M68.393,25.408c2.21-2.339,4.016-4.407,5.4-6.046,2.832-3.36,3.756-4.773,4.523-6.355A21.665,21.665,0,0,0,79.83,8.826l8.39,2.068c.476,1.4,1.2,3.405,2.21,5.777a26.731,26.731,0,0,0,1.849,3.846A17.375,17.375,0,0,0,96.9,25.408Z" transform="translate(151.882 450.897)" fill="none" stroke="#6f6f6e" stroke-linecap="round" stroke-linejoin="round" stroke-width="0.4"/>
    <path id="패스_801" data-name="패스 801" d="M80.158,15.4,78.88,11.407a6.836,6.836,0,0,1-5.06,2c-.7-.066-2.278-.215-2.766-1.363a2.819,2.819,0,0,1,.526-2.492,2.479,2.479,0,0,1-2.21-2.79c.189-2.556,3.872-2.856,3.872-2.856a5.3,5.3,0,0,1,1.967-2.386,5.79,5.79,0,0,1,8.046,1.346,3.638,3.638,0,0,1,3.759-1.33,2.54,2.54,0,0,1,2.2,2.613s3.353-.422,3.912,1.707-1.113,2.584-1.113,2.584a3.259,3.259,0,0,1,.323,2.686c-.618,1.537-2.615,1.858-3.754,1.766a4.683,4.683,0,0,1-3.153-1.754q-.6,2.115-1.2,4.23a2.381,2.381,0,0,1-2.11,1.179A2.5,2.5,0,0,1,80.158,15.4" transform="translate(153.194 439.537)" fill="#a3a2a2" stroke="#707070" stroke-width="0.4"/>
    <path id="패스_802" data-name="패스 802" d="M80.158,15.4,78.88,11.407a6.836,6.836,0,0,1-5.06,2c-.7-.066-2.278-.215-2.766-1.363a2.819,2.819,0,0,1,.526-2.492,2.479,2.479,0,0,1-2.21-2.79c.189-2.556,3.872-2.856,3.872-2.856a5.3,5.3,0,0,1,1.967-2.386,5.79,5.79,0,0,1,8.046,1.346,3.638,3.638,0,0,1,3.759-1.33,2.54,2.54,0,0,1,2.2,2.613s3.353-.422,3.912,1.707-1.113,2.584-1.113,2.584a3.259,3.259,0,0,1,.323,2.686c-.618,1.537-2.615,1.858-3.754,1.766a4.683,4.683,0,0,1-3.153-1.754q-.6,2.115-1.2,4.23a2.381,2.381,0,0,1-2.11,1.179A2.5,2.5,0,0,1,80.158,15.4Z" transform="translate(153.194 439.537)" fill="none" stroke="#6f6f6e" stroke-linecap="round" stroke-linejoin="round" stroke-width="0.4"/>
    <path id="패스_803" data-name="패스 803" d="M96.9,26.756a14.444,14.444,0,0,1-3.516-3.106c-1.962-2.259-2.966-4.471-3.235-4.339-.231.111.167,1.875.2,2.033.111.5.271,1.04.073,1.165-.092.061-.229,0-.276-.017-.62-.264-2.306-5.343-3.014-7.527-.024.707-.167,4.061-1.17,4.233a.574.574,0,0,1-.318-.05c-1.486-.535-1.316-4.237-1.995-4.268a.291.291,0,0,0-.189.085c-1.349,1.061.092,8.678-1.9,9.574a.741.741,0,0,1-.59.061c-1.245-.547-1.351-7.324-1.431-7.449a.5.5,0,0,0-.061-.071.323.323,0,0,0-.08-.045c-.078-.031-6.308,5.518-11.01,9.72C76.955,17.731,79.3,13.239,79.707,10.8c.047-.276.436-2.728,1.46-2.9.861-.141,1.736,1.648,2.566,1.372C84.8,8.924,85.2,7.795,86.005,7.835c.766.038,1.134,1.405,2.214,4.41.309.877.759,2.115,1.339,3.589a39.818,39.818,0,0,0,2.518,5.709,18.947,18.947,0,0,0,4.82,5.214" transform="translate(151.882 449.549)" fill="#dc3b42" stroke="#707070" stroke-width="0.4"/>
    <path id="패스_804" data-name="패스 804" d="M96.9,26.756a14.444,14.444,0,0,1-3.516-3.106c-1.962-2.259-2.966-4.471-3.235-4.339-.231.111.167,1.875.2,2.033.111.5.271,1.04.073,1.165-.092.061-.229,0-.276-.017-.62-.264-2.306-5.343-3.014-7.527-.024.707-.167,4.061-1.17,4.233a.574.574,0,0,1-.318-.05c-1.486-.535-1.316-4.237-1.995-4.268a.291.291,0,0,0-.189.085c-1.349,1.061.092,8.678-1.9,9.574a.741.741,0,0,1-.59.061c-1.245-.547-1.351-7.324-1.431-7.449a.5.5,0,0,0-.061-.071.323.323,0,0,0-.08-.045c-.078-.031-6.308,5.518-11.01,9.72C76.955,17.731,79.3,13.239,79.707,10.8c.047-.276.436-2.728,1.46-2.9.861-.141,1.736,1.648,2.566,1.372C84.8,8.924,85.2,7.795,86.005,7.835c.766.038,1.134,1.405,2.214,4.41.309.877.759,2.115,1.339,3.589a39.818,39.818,0,0,0,2.518,5.709A18.947,18.947,0,0,0,96.9,26.756Z" transform="translate(151.882 449.549)" fill="none" stroke="#6f6f6e" stroke-linecap="round" stroke-linejoin="round" stroke-width="0.4"/>
  </g>
</svg>
