<svg xmlns="http://www.w3.org/2000/svg" xmlns:xlink="http://www.w3.org/1999/xlink" width="105" height="116" viewBox="0 0 105 116">
  <defs>
    <filter id="사각형_8758" x="0" y="0" width="105" height="116" filterUnits="userSpaceOnUse">
      <feOffset dx="3" dy="3" input="SourceAlpha"/>
      <feGaussianBlur stdDeviation="7.5" result="blur"/>
      <feFlood flood-opacity="0.102"/>
      <feComposite operator="in" in2="blur"/>
      <feComposite in="SourceGraphic"/>
    </filter>
  </defs>
  <g id="그룹_277" data-name="그룹 277" transform="translate(-5804.5 -1423.5)">
    <g id="그룹_275" data-name="그룹 275" opacity="0.85">
      <g transform="matrix(1, 0, 0, 1, 5804.5, 1423.5)" filter="url(#사각형_8758)">
        <rect id="사각형_8758-2" data-name="사각형 8758" width="60" height="71" rx="8" transform="translate(19.5 19.5)" fill="#fff"/>
      </g>
      <path id="다각형_3" data-name="다각형 3" d="M5,0l5,9H0Z" transform="translate(5858 1523) rotate(180)" fill="#fff"/>
    </g>
    <g id="그룹_276" data-name="그룹 276">
      <path id="패스_685" data-name="패스 685" d="M174.269,18.224s-5.9-.531-5.9,4.707,5.9,5.237,5.9,5.237h32.685s5.961-.472,5.961-7.473-6.944-6.765-6.944-6.765-1.769-8.885-9.89-8.885a9.831,9.831,0,0,0-9.826,7.178c-4.018-.877-7.987.012-10.217,2.412a7.091,7.091,0,0,0-1.769,3.589" transform="translate(5663.631 1455.962)" fill="#f4f3f4" stroke="#707070" stroke-width="0.4"/>
      <path id="패스_686" data-name="패스 686" d="M174.269,18.224s-5.9-.531-5.9,4.707,5.9,5.237,5.9,5.237h32.685s5.961-.472,5.961-7.473-6.944-6.765-6.944-6.765-1.769-8.885-9.89-8.885a9.831,9.831,0,0,0-9.826,7.178c-4.018-.877-7.987.012-10.217,2.412A7.091,7.091,0,0,0,174.269,18.224Z" transform="translate(5663.631 1455.962)" fill="none" stroke="#6f6f6e" stroke-linecap="round" stroke-linejoin="round" stroke-width="0.4"/>
      <path id="패스_687" data-name="패스 687" d="M172.372,21.42a17.894,17.894,0,0,1,8.579-2.04c5.254.153,9.277,2.893,14.417,2.04,2.176-.361,3.007-1.094,3.311-1.8a2.8,2.8,0,0,0-.028-2.162,2.13,2.13,0,0,0-1.974-1.309,2.194,2.194,0,0,0-1.632,1.04" transform="translate(5669.061 1471.037)" fill="none" stroke="#6f6f6e" stroke-linecap="round" stroke-linejoin="round" stroke-width="0.4"/>
      <path id="패스_688" data-name="패스 688" d="M172.372,21.67a17.894,17.894,0,0,1,8.579-2.04c5.254.153,9.277,2.893,14.417,2.04a8.107,8.107,0,0,0,2.966-1.266" transform="translate(5669.061 1475.762)" fill="none" stroke="#6f6f6e" stroke-linecap="round" stroke-linejoin="round" stroke-width="0.4"/>
    </g>
  </g>
</svg>
