<svg xmlns="http://www.w3.org/2000/svg" width="44.941" height="36.951" viewBox="0 0 44.941 36.951">
  <g id="그룹_10" data-name="그룹 10" transform="translate(-455.835 -450.607)">
    <path id="패스_685" data-name="패스 685" d="M174.269,18.224s-5.9-.531-5.9,4.707,5.9,5.237,5.9,5.237h32.685s5.961-.472,5.961-7.473-6.944-6.765-6.944-6.765-1.769-8.885-9.89-8.885a9.831,9.831,0,0,0-9.826,7.178c-4.018-.877-7.987.012-10.217,2.412a7.091,7.091,0,0,0-1.769,3.589" transform="translate(287.661 445.762)" fill="#f4f3f4" stroke="#707070" stroke-width="0.4"/>
    <path id="패스_686" data-name="패스 686" d="M174.269,18.224s-5.9-.531-5.9,4.707,5.9,5.237,5.9,5.237h32.685s5.961-.472,5.961-7.473-6.944-6.765-6.944-6.765-1.769-8.885-9.89-8.885a9.831,9.831,0,0,0-9.826,7.178c-4.018-.877-7.987.012-10.217,2.412A7.091,7.091,0,0,0,174.269,18.224Z" transform="translate(287.661 445.762)" fill="none" stroke="#6f6f6e" stroke-linecap="round" stroke-linejoin="round" stroke-width="0.4"/>
    <path id="패스_687" data-name="패스 687" d="M172.372,21.42a17.894,17.894,0,0,1,8.579-2.04c5.254.153,9.277,2.893,14.417,2.04,2.176-.361,3.007-1.094,3.311-1.8a2.8,2.8,0,0,0-.028-2.162,2.13,2.13,0,0,0-1.974-1.309,2.194,2.194,0,0,0-1.632,1.04" transform="translate(293.091 460.837)" fill="none" stroke="#6f6f6e" stroke-linecap="round" stroke-linejoin="round" stroke-width="0.4"/>
    <path id="패스_688" data-name="패스 688" d="M172.372,21.67a17.894,17.894,0,0,1,8.579-2.04c5.254.153,9.277,2.893,14.417,2.04a8.107,8.107,0,0,0,2.966-1.266" transform="translate(293.091 465.562)" fill="none" stroke="#6f6f6e" stroke-linecap="round" stroke-linejoin="round" stroke-width="0.4"/>
  </g>
</svg>
